<svg width="270" height="122" viewBox="0 0 270 122" fill="none" xmlns="http://www.w3.org/2000/svg">
<path d="M96.3056 72.5484C94.2914 71.713 68.8521 42.7472 68.8521 41.2829C68.8521 40.8793 78.5455 43.5262 90.3985 47.1587C115.189 54.7521 116.651 54.9868 109.756 50.3218C103.462 46.0605 103.404 44.6901 109.282 38.5234C127.516 19.3849 154.66 17.8456 180.361 34.4873L188.447 39.7248C145.228 57.1456 146.138 55.0243 159.57 72.2762C163.898 77.8328 164.015 78.152 162 78.6119C160.838 78.8841 146.042 77.8141 129.134 76.2466C112.226 74.6791 97.4483 73.0177 96.3056 72.5484Z" fill="#BBDEFB"/>
<path d="M14.3806 65.4243C8.89961 68.8972 8.45416 67.4517 13.6544 63.0683C33.3706 46.4172 63.7293 48.6511 83.8619 68.2307C90.3984 74.5946 100.954 90.5324 99.5399 91.9121C99.2204 92.2219 94.3591 92.6349 88.7425 92.8226C78.5358 93.1793 78.5358 93.1793 74.8075 86.8436C62.1314 65.3116 31.6081 54.4893 14.3806 65.4243Z" fill="#1E88E5"/>
<path d="M66.1308 98.3697C65.5013 97.7596 57.6574 97.8253 125.173 97.8723L182.956 97.9098C224.432 67.17 227.337 66.2126 248.767 69.4602C260.785 71.2811 261.956 72.3887 253.745 74.1627C242.812 76.5374 236.188 81.1085 220.403 97.1683C206.091 111.736 205.819 111.961 201.762 111.952C199.496 111.952 168.169 109.004 132.145 105.409C96.1215 101.805 66.4116 98.6325 66.1308 98.3697Z" fill="#1E88E5"/>
<path d="M156.955 58.469C159.202 56.2914 207.359 36.862 210.506 36.862C212.22 36.862 216.21 37.7068 219.377 38.7392C233.389 43.3103 231.239 40.6353 212.898 30.6671C198.218 22.6982 198.111 22.6137 195.322 17.1885C191.342 9.46365 191.942 8.71275 199.941 11.4348C216.452 17.0665 235.307 30.4324 244.739 43.1789C251.943 52.903 251.856 53.1846 240.981 55.5124C228.906 58.103 216.249 65.152 196.271 80.4422C187.788 86.928 180.709 92.2406 180.535 92.2406C180.361 92.2406 174.715 84.9006 167.994 75.9274C158.437 63.1622 156.035 59.3607 156.955 58.469Z" fill="#1E88E5"/>
<path d="M65.9469 39.6778L24.3066 27.4758L16.5596 19.9668H50.4529L65.9469 39.6778Z" fill="#1E88E5"/>
<path d="M100.102 79.5409C100.363 79.3719 165.709 83.99 167.143 84.2809C169.786 84.8159 164.906 85.5856 138.575 88.8051C122.859 90.7199 109.679 92.278 109.282 92.2686C108.885 92.2498 106.6 89.4152 104.217 85.9611C101.825 82.5163 99.9759 79.6254 100.102 79.5409Z" fill="#1E88E5"/>
</svg>
