<svg width="286" height="246" viewBox="0 0 286 246" fill="none" xmlns="http://www.w3.org/2000/svg">
<path d="M104.306 88.5484C102.291 87.713 76.8521 58.7472 76.8521 57.2829C76.8521 56.8793 86.5455 59.5262 98.3985 63.1587C123.189 70.7521 124.651 70.9868 117.756 66.3218C111.462 62.0605 111.404 60.6901 117.282 54.5234C135.516 35.3849 162.66 33.8456 188.361 50.4873L196.447 55.7248C153.228 73.1456 154.138 71.0243 167.57 88.2762C171.898 93.8328 172.015 94.152 170 94.6119C168.838 94.8841 154.042 93.8141 137.134 92.2466C120.226 90.6791 105.448 89.0177 104.306 88.5484Z" fill="#BBDEFB"/>
<path d="M22.3806 81.4243C16.8996 84.8972 16.4542 83.4517 21.6544 79.0683C41.3706 62.4172 71.7293 64.6511 91.8619 84.2307C98.3984 90.5946 108.954 106.532 107.54 107.912C107.22 108.222 102.359 108.635 96.7425 108.823C86.5358 109.179 86.5358 109.179 82.8075 102.844C70.1314 81.3116 39.6081 70.4893 22.3806 81.4243Z" fill="#1E88E5"/>
<path d="M74.1308 114.37C73.5013 113.76 65.6574 113.825 133.173 113.872L190.956 113.91C232.432 83.17 235.337 82.2126 256.767 85.4602C268.785 87.2811 269.956 88.3887 261.745 90.1627C250.812 92.5374 244.188 97.1085 228.403 113.168C214.091 127.736 213.819 127.961 209.762 127.952C207.496 127.952 176.169 125.004 140.145 121.409C104.121 117.805 74.4116 114.633 74.1308 114.37Z" fill="#1E88E5"/>
<path d="M164.955 74.469C167.202 72.2914 215.359 52.862 218.506 52.862C220.22 52.862 224.21 53.7068 227.377 54.7392C241.389 59.3103 239.239 56.6353 220.898 46.6671C206.218 38.6982 206.111 38.6137 203.322 33.1885C199.342 25.4636 199.942 24.7127 207.941 27.4348C224.452 33.0665 243.307 46.4324 252.739 59.1789C259.943 68.903 259.856 69.1846 248.981 71.5124C236.906 74.103 224.249 81.152 204.271 96.4422C195.788 102.928 188.709 108.241 188.535 108.241C188.361 108.241 182.715 100.901 175.994 91.9274C166.437 79.1622 164.035 75.3607 164.955 74.469Z" fill="#1E88E5"/>
<path d="M73.9469 55.6778L32.3066 43.4758L24.5596 35.9668H58.4529L73.9469 55.6778Z" fill="#1E88E5"/>
<path d="M108.102 95.5409C108.363 95.3719 173.709 99.99 175.143 100.281C177.786 100.816 172.906 101.586 146.575 104.805C130.859 106.72 117.679 108.278 117.282 108.269C116.885 108.25 114.6 105.415 112.217 101.961C109.825 98.5163 107.976 95.6254 108.102 95.5409Z" fill="#1E88E5"/>
<path d="M61.3833 174.056C61.3191 173.253 61.0183 172.627 60.4807 172.178C59.9512 171.729 59.1449 171.504 58.0618 171.504C57.3718 171.504 56.8062 171.589 56.365 171.757C55.9317 171.917 55.6108 172.138 55.4022 172.419C55.1936 172.7 55.0853 173.021 55.0773 173.382C55.0612 173.678 55.1134 173.947 55.2337 174.188C55.3621 174.421 55.5627 174.633 55.8355 174.826C56.1082 175.01 56.4572 175.179 56.8824 175.331C57.3077 175.484 57.8131 175.62 58.3988 175.74L60.4206 176.174C61.7845 176.462 62.9518 176.844 63.9226 177.317C64.8934 177.79 65.6876 178.348 66.3054 178.99C66.9232 179.623 67.3765 180.338 67.6653 181.132C67.9621 181.926 68.1146 182.793 68.1226 183.731C68.1146 185.352 67.7094 186.724 66.9071 187.847C66.1048 188.97 64.9575 189.825 63.4653 190.41C61.981 190.996 60.1959 191.289 58.11 191.289C55.9678 191.289 54.0985 190.972 52.5019 190.338C50.9134 189.704 49.6778 188.73 48.7953 187.414C47.9208 186.09 47.4796 184.397 47.4715 182.335H53.8257C53.8658 183.089 54.0544 183.723 54.3913 184.237C54.7283 184.75 55.2016 185.139 55.8114 185.404C56.4292 185.669 57.1633 185.801 58.0137 185.801C58.7277 185.801 59.3254 185.713 59.8068 185.536C60.2882 185.36 60.6532 185.115 60.9019 184.802C61.1507 184.489 61.279 184.132 61.287 183.731C61.279 183.354 61.1547 183.025 60.914 182.744C60.6813 182.456 60.2962 182.199 59.7587 181.974C59.2211 181.742 58.4951 181.525 57.5804 181.324L55.1254 180.795C52.9432 180.321 51.2223 179.531 49.9627 178.424C48.7111 177.309 48.0893 175.789 48.0973 173.863C48.0893 172.299 48.5065 170.931 49.3489 169.759C50.1993 168.58 51.3747 167.661 52.875 167.003C54.3833 166.346 56.1122 166.017 58.0618 166.017C60.0515 166.017 61.7724 166.35 63.2246 167.015C64.6767 167.681 65.7959 168.62 66.5822 169.831C67.3765 171.035 67.7776 172.443 67.7856 174.056H61.3833ZM75.9149 191.289C74.7355 191.289 73.6925 191.096 72.7859 190.711C71.8873 190.318 71.1813 189.724 70.6679 188.93C70.1544 188.136 69.8977 187.125 69.8977 185.897C69.8977 184.887 70.0702 184.024 70.4151 183.31C70.7601 182.588 71.2415 181.998 71.8593 181.541C72.477 181.084 73.1951 180.735 74.0134 180.494C74.8398 180.253 75.7303 180.097 76.6851 180.025C77.72 179.944 78.5504 179.848 79.1762 179.736C79.81 179.615 80.2673 179.451 80.5481 179.242C80.8289 179.026 80.9693 178.741 80.9693 178.388V178.34C80.9693 177.858 80.7848 177.489 80.4157 177.233C80.0467 176.976 79.5733 176.848 78.9957 176.848C78.3619 176.848 77.8444 176.988 77.4432 177.269C77.0501 177.542 76.8134 177.963 76.7332 178.532H70.6197C70.7 177.409 71.057 176.374 71.6908 175.427C72.3326 174.473 73.2673 173.711 74.4948 173.141C75.7223 172.563 77.2547 172.274 79.0919 172.274C80.4157 172.274 81.6031 172.431 82.6541 172.744C83.7051 173.049 84.5997 173.478 85.3378 174.031C86.0759 174.577 86.6375 175.219 87.0226 175.957C87.4157 176.687 87.6123 177.481 87.6123 178.34V191H81.4026V188.401H81.2581C80.8891 189.091 80.4398 189.648 79.9103 190.073C79.3888 190.499 78.7911 190.807 78.1172 191C77.4513 191.193 76.7172 191.289 75.9149 191.289ZM78.0811 187.101C78.5865 187.101 79.0599 186.997 79.5011 186.788C79.9504 186.579 80.3154 186.279 80.5962 185.885C80.877 185.492 81.0175 185.015 81.0175 184.453V182.913C80.8409 182.985 80.6524 183.053 80.4518 183.117C80.2593 183.182 80.0507 183.242 79.826 183.298C79.6094 183.354 79.3768 183.406 79.128 183.454C78.8874 183.503 78.6346 183.547 78.3699 183.587C77.8564 183.667 77.4352 183.799 77.1063 183.984C76.7854 184.16 76.5447 184.381 76.3842 184.646C76.2318 184.903 76.1556 185.191 76.1556 185.512C76.1556 186.026 76.3361 186.419 76.6971 186.692C77.0581 186.964 77.5194 187.101 78.0811 187.101ZM101.858 172.515V177.329H89.4867V172.515H101.858ZM91.8454 191V171.986C91.8454 170.461 92.1182 169.198 92.6637 168.195C93.2093 167.192 93.9795 166.442 94.9744 165.944C95.9692 165.447 97.1405 165.198 98.4884 165.198C99.3308 165.198 100.149 165.262 100.943 165.391C101.746 165.519 102.339 165.631 102.725 165.728L101.762 170.493C101.521 170.421 101.24 170.365 100.919 170.325C100.598 170.277 100.318 170.253 100.077 170.253C99.4512 170.253 99.0299 170.385 98.8133 170.65C98.5967 170.915 98.4884 171.264 98.4884 171.697V191H91.8454ZM112.716 191.337C110.742 191.337 109.042 190.96 107.613 190.206C106.193 189.444 105.098 188.352 104.328 186.932C103.566 185.504 103.185 183.795 103.185 181.806C103.185 179.896 103.57 178.227 104.34 176.799C105.11 175.371 106.197 174.26 107.601 173.466C109.005 172.672 110.662 172.274 112.572 172.274C113.968 172.274 115.231 172.491 116.363 172.924C117.494 173.358 118.46 173.987 119.263 174.814C120.065 175.632 120.683 176.627 121.116 177.798C121.549 178.97 121.766 180.289 121.766 181.758V183.298H105.255V179.64H115.652C115.644 179.11 115.508 178.645 115.243 178.244C114.987 177.834 114.638 177.517 114.196 177.293C113.763 177.06 113.27 176.944 112.716 176.944C112.179 176.944 111.685 177.06 111.236 177.293C110.787 177.517 110.426 177.83 110.153 178.231C109.888 178.633 109.748 179.102 109.732 179.64V183.587C109.732 184.181 109.856 184.71 110.105 185.175C110.353 185.641 110.71 186.006 111.176 186.27C111.641 186.535 112.203 186.668 112.86 186.668C113.318 186.668 113.735 186.603 114.112 186.475C114.497 186.347 114.826 186.162 115.099 185.921C115.372 185.673 115.572 185.376 115.701 185.031H121.766C121.557 186.315 121.064 187.43 120.286 188.376C119.507 189.315 118.477 190.045 117.193 190.567C115.917 191.08 114.425 191.337 112.716 191.337ZM131.132 191V166.354H141.818C143.696 166.354 145.272 166.606 146.548 167.112C147.831 167.617 148.798 168.331 149.448 169.254C150.106 170.176 150.435 171.264 150.435 172.515C150.435 173.422 150.234 174.248 149.833 174.994C149.44 175.74 148.886 176.366 148.172 176.872C147.458 177.369 146.624 177.714 145.669 177.907V178.147C146.728 178.187 147.691 178.456 148.558 178.954C149.424 179.443 150.114 180.121 150.627 180.987C151.141 181.846 151.398 182.857 151.398 184.02C151.398 185.368 151.045 186.567 150.339 187.618C149.641 188.669 148.646 189.496 147.354 190.097C146.062 190.699 144.522 191 142.733 191H131.132ZM137.823 185.657H140.952C142.075 185.657 142.917 185.448 143.479 185.031C144.041 184.606 144.321 183.98 144.321 183.154C144.321 182.576 144.189 182.087 143.924 181.685C143.66 181.284 143.282 180.979 142.793 180.771C142.312 180.562 141.73 180.458 141.048 180.458H137.823V185.657ZM137.823 176.318H140.567C141.152 176.318 141.67 176.226 142.119 176.041C142.568 175.857 142.917 175.592 143.166 175.247C143.423 174.894 143.551 174.465 143.551 173.959C143.551 173.197 143.278 172.615 142.733 172.214C142.187 171.805 141.497 171.601 140.663 171.601H137.823V176.318ZM165.851 182.913V172.515H172.494V191H166.188V187.486H165.995C165.594 188.665 164.892 189.588 163.889 190.254C162.887 190.912 161.695 191.241 160.315 191.241C159.023 191.241 157.892 190.944 156.921 190.35C155.959 189.756 155.209 188.938 154.671 187.895C154.142 186.852 153.873 185.657 153.865 184.309V172.515H160.508V182.913C160.516 183.827 160.748 184.546 161.206 185.067C161.671 185.589 162.321 185.849 163.155 185.849C163.709 185.849 164.186 185.733 164.587 185.5C164.997 185.26 165.309 184.923 165.526 184.489C165.751 184.048 165.859 183.523 165.851 182.913ZM182.564 191.241C181.248 191.241 180.037 190.896 178.929 190.206C177.83 189.516 176.948 188.469 176.282 187.065C175.624 185.661 175.295 183.892 175.295 181.758C175.295 179.527 175.64 177.714 176.33 176.318C177.028 174.922 177.927 173.899 179.026 173.249C180.133 172.599 181.296 172.274 182.516 172.274C183.43 172.274 184.233 172.435 184.923 172.756C185.612 173.069 186.19 173.49 186.655 174.019C187.121 174.541 187.474 175.115 187.715 175.74H187.811V166.354H194.454V191H187.859V187.967H187.715C187.458 188.593 187.089 189.155 186.607 189.652C186.134 190.142 185.556 190.531 184.874 190.819C184.2 191.1 183.43 191.241 182.564 191.241ZM185.019 186.138C185.629 186.138 186.15 185.962 186.583 185.609C187.025 185.248 187.361 184.742 187.594 184.092C187.835 183.434 187.955 182.656 187.955 181.758C187.955 180.843 187.835 180.061 187.594 179.411C187.361 178.753 187.025 178.252 186.583 177.907C186.15 177.554 185.629 177.377 185.019 177.377C184.409 177.377 183.888 177.554 183.454 177.907C183.029 178.252 182.7 178.753 182.468 179.411C182.243 180.061 182.131 180.843 182.131 181.758C182.131 182.672 182.243 183.458 182.468 184.116C182.7 184.766 183.029 185.268 183.454 185.621C183.888 185.966 184.409 186.138 185.019 186.138ZM204.406 191.241C203.09 191.241 201.879 190.896 200.772 190.206C199.673 189.516 198.79 188.469 198.124 187.065C197.466 185.661 197.137 183.892 197.137 181.758C197.137 179.527 197.482 177.714 198.172 176.318C198.87 174.922 199.769 173.899 200.868 173.249C201.975 172.599 203.139 172.274 204.358 172.274C205.273 172.274 206.075 172.435 206.765 172.756C207.455 173.069 208.033 173.49 208.498 174.019C208.963 174.541 209.316 175.115 209.557 175.74H209.653V166.354H216.296V191H209.701V187.967H209.557C209.3 188.593 208.931 189.155 208.45 189.652C207.976 190.142 207.399 190.531 206.717 190.819C206.043 191.1 205.273 191.241 204.406 191.241ZM206.861 186.138C207.471 186.138 207.992 185.962 208.426 185.609C208.867 185.248 209.204 184.742 209.437 184.092C209.677 183.434 209.798 182.656 209.798 181.758C209.798 180.843 209.677 180.061 209.437 179.411C209.204 178.753 208.867 178.252 208.426 177.907C207.992 177.554 207.471 177.377 206.861 177.377C206.251 177.377 205.73 177.554 205.297 177.907C204.872 178.252 204.543 178.753 204.31 179.411C204.085 180.061 203.973 180.843 203.973 181.758C203.973 182.672 204.085 183.458 204.31 184.116C204.543 184.766 204.872 185.268 205.297 185.621C205.73 185.966 206.251 186.138 206.861 186.138ZM223.601 197.932C222.839 197.932 222.113 197.872 221.423 197.751C220.733 197.639 220.127 197.483 219.606 197.282L221.05 192.564C221.595 192.757 222.093 192.881 222.542 192.938C222.999 192.994 223.388 192.962 223.709 192.841C224.038 192.721 224.275 192.492 224.419 192.155L224.564 191.818L218.065 172.515H224.997L227.982 185.32H228.174L231.207 172.515H238.187L231.448 192.54C231.111 193.559 230.621 194.474 229.979 195.284C229.346 196.103 228.511 196.748 227.476 197.222C226.441 197.695 225.15 197.932 223.601 197.932Z" fill="white"/>
<path d="M72.5979 216.273H73.8081L75.5638 220.347H75.6661L78.7513 216.273H79.9616L75.9559 221.403L75.3593 225H74.3025L74.8991 221.403L72.5979 216.273ZM81.5191 225.136C80.9168 225.136 80.4126 224.993 80.0063 224.706C79.6001 224.419 79.3131 224.017 79.1455 223.5C78.9807 222.983 78.9537 222.381 79.0645 221.693C79.1725 221.023 79.387 220.439 79.708 219.942C80.0319 219.442 80.4339 219.055 80.914 218.783C81.3969 218.507 81.9282 218.369 82.5077 218.369C83.11 218.369 83.6128 218.514 84.0162 218.804C84.4225 219.091 84.7094 219.494 84.877 220.014C85.0447 220.531 85.0731 221.136 84.9623 221.83C84.8543 222.494 84.637 223.075 84.3103 223.572C83.9864 224.067 83.5844 224.452 83.1043 224.727C82.627 225 82.0986 225.136 81.5191 225.136ZM81.5361 224.233C81.9964 224.233 82.3955 224.115 82.7336 223.879C83.0745 223.643 83.3501 223.332 83.5603 222.946C83.7733 222.56 83.9168 222.142 83.9907 221.693C84.0589 221.267 84.056 220.871 83.9822 220.504C83.9083 220.135 83.7506 219.838 83.5091 219.614C83.2677 219.386 82.9282 219.273 82.4907 219.273C82.0305 219.273 81.6285 219.392 81.2847 219.631C80.9438 219.869 80.6682 220.183 80.458 220.572C80.2478 220.962 80.1072 221.381 80.0361 221.83C79.968 222.256 79.9694 222.652 80.0404 223.018C80.1143 223.382 80.2719 223.676 80.5134 223.901C80.7577 224.122 81.0986 224.233 81.5361 224.233ZM90.5457 222.324L91.1934 218.455H92.1991L91.1082 225H90.1025L90.29 223.892H90.2219C90.0173 224.224 89.7318 224.507 89.3653 224.74C88.9988 224.97 88.5684 225.085 88.0741 225.085C87.665 225.085 87.3156 224.996 87.0258 224.817C86.7389 224.635 86.5344 224.362 86.4122 223.999C86.2929 223.632 86.2787 223.17 86.3696 222.614L87.0684 218.455H88.0741L87.3923 222.545C87.3156 223.023 87.3881 223.403 87.6096 223.688C87.8312 223.972 88.1508 224.114 88.5684 224.114C88.8184 224.114 89.0827 224.05 89.3611 223.922C89.6423 223.794 89.8923 223.598 90.1111 223.334C90.3327 223.07 90.4775 222.733 90.5457 222.324ZM92.9502 225L94.0411 218.455H95.0127L94.8422 219.443H94.9104C95.0809 219.119 95.3408 218.857 95.6903 218.655C96.0397 218.453 96.4104 218.352 96.8025 218.352C96.8792 218.352 96.9715 218.354 97.0795 218.357C97.1874 218.357 97.2712 218.361 97.3309 218.369L97.1604 219.392C97.1263 219.384 97.0496 219.371 96.9303 219.354C96.811 219.334 96.6831 219.324 96.5468 219.324C96.2286 219.324 95.9346 219.391 95.6647 219.524C95.3948 219.655 95.1689 219.837 94.9871 220.07C94.8053 220.3 94.6888 220.562 94.6377 220.858L93.9559 225H92.9502ZM106.302 219.92L105.348 220.176C105.313 220.023 105.254 219.875 105.169 219.733C105.086 219.588 104.958 219.47 104.785 219.379C104.615 219.286 104.382 219.239 104.086 219.239C103.686 219.239 103.338 219.331 103.042 219.516C102.747 219.697 102.578 219.929 102.535 220.21C102.492 220.457 102.549 220.655 102.706 220.803C102.862 220.95 103.123 221.071 103.49 221.165L104.427 221.403C104.99 221.548 105.39 221.766 105.629 222.055C105.87 222.342 105.953 222.716 105.876 223.176C105.813 223.551 105.65 223.886 105.386 224.182C105.122 224.477 104.784 224.71 104.372 224.881C103.96 225.051 103.501 225.136 102.995 225.136C102.322 225.136 101.791 224.991 101.402 224.702C101.012 224.409 100.805 223.986 100.779 223.432L101.785 223.193C101.811 223.543 101.936 223.807 102.16 223.986C102.387 224.162 102.706 224.25 103.115 224.25C103.583 224.25 103.974 224.151 104.286 223.952C104.599 223.75 104.777 223.509 104.819 223.227C104.862 222.997 104.816 222.805 104.683 222.652C104.552 222.499 104.325 222.384 104.001 222.307L102.961 222.051C102.382 221.906 101.975 221.685 101.742 221.386C101.512 221.088 101.436 220.713 101.512 220.261C101.575 219.892 101.734 219.565 101.99 219.281C102.248 218.997 102.572 218.774 102.961 218.612C103.353 218.45 103.779 218.369 104.24 218.369C104.887 218.369 105.372 218.511 105.693 218.795C106.014 219.077 106.217 219.452 106.302 219.92ZM108.992 225.153C108.577 225.153 108.214 225.075 107.901 224.919C107.589 224.76 107.357 224.531 107.207 224.233C107.056 223.932 107.015 223.568 107.083 223.142C107.148 222.767 107.275 222.463 107.462 222.23C107.65 221.994 107.877 221.81 108.144 221.676C108.414 221.54 108.704 221.439 109.013 221.374C109.326 221.305 109.637 221.253 109.947 221.216C110.35 221.165 110.678 221.125 110.931 221.097C111.184 221.068 111.374 221.021 111.502 220.956C111.63 220.891 111.708 220.778 111.736 220.619V220.585C111.805 220.168 111.749 219.842 111.57 219.609C111.391 219.374 111.072 219.256 110.611 219.256C110.134 219.256 109.735 219.361 109.414 219.571C109.093 219.781 108.856 220.006 108.702 220.244L107.816 219.903C108.049 219.506 108.327 219.196 108.651 218.974C108.975 218.75 109.315 218.594 109.67 218.506C110.025 218.415 110.367 218.369 110.697 218.369C110.907 218.369 111.144 218.395 111.408 218.446C111.672 218.494 111.92 218.595 112.15 218.749C112.383 218.902 112.557 219.134 112.674 219.443C112.793 219.753 112.81 220.168 112.725 220.688L112.009 225H111.003L111.157 224.114H111.106C111.015 224.256 110.876 224.408 110.688 224.57C110.503 224.732 110.269 224.869 109.985 224.983C109.704 225.097 109.373 225.153 108.992 225.153ZM109.282 224.25C109.68 224.25 110.028 224.172 110.326 224.016C110.627 223.859 110.869 223.658 111.05 223.411C111.235 223.163 111.35 222.903 111.396 222.631L111.549 221.71C111.498 221.761 111.397 221.808 111.246 221.851C111.096 221.891 110.925 221.926 110.735 221.957C110.547 221.986 110.364 222.011 110.185 222.034C110.009 222.054 109.867 222.071 109.759 222.085C109.492 222.119 109.238 222.175 108.996 222.251C108.758 222.325 108.556 222.437 108.391 222.588C108.229 222.736 108.128 222.937 108.089 223.193C108.029 223.543 108.113 223.807 108.34 223.986C108.567 224.162 108.881 224.25 109.282 224.25ZM117.85 218.455L117.714 219.307H114.186L114.322 218.455H117.85ZM114.288 225L115.532 217.551C115.589 217.176 115.725 216.864 115.941 216.614C116.16 216.364 116.42 216.176 116.721 216.051C117.025 215.926 117.333 215.864 117.646 215.864C117.893 215.864 118.09 215.884 118.238 215.923C118.389 215.963 118.498 216 118.566 216.034L118.14 216.903C118.089 216.886 118.021 216.865 117.936 216.839C117.853 216.814 117.74 216.801 117.595 216.801C117.262 216.801 117.009 216.885 116.836 217.053C116.663 217.22 116.546 217.466 116.487 217.79L115.294 225H114.288ZM120.627 225.136C119.999 225.136 119.48 224.997 119.071 224.719C118.662 224.438 118.377 224.045 118.215 223.543C118.053 223.037 118.027 222.449 118.138 221.778C118.249 221.108 118.469 220.517 118.799 220.006C119.128 219.491 119.539 219.091 120.03 218.804C120.522 218.514 121.061 218.369 121.649 218.369C121.99 218.369 122.318 218.426 122.634 218.54C122.949 218.653 123.222 218.838 123.452 219.094C123.682 219.347 123.843 219.682 123.934 220.099C124.024 220.517 124.019 221.031 123.916 221.642L123.848 222.068H118.803L118.939 221.199H122.962C123.027 220.83 123.01 220.5 122.911 220.21C122.814 219.92 122.645 219.692 122.404 219.524C122.165 219.357 121.862 219.273 121.496 219.273C121.118 219.273 120.766 219.375 120.439 219.58C120.112 219.781 119.84 220.037 119.621 220.347C119.402 220.653 119.266 220.966 119.212 221.284L119.093 222.034C119.007 222.577 119.02 223.009 119.131 223.33C119.245 223.651 119.442 223.882 119.723 224.024C120.005 224.163 120.357 224.233 120.78 224.233C121.05 224.233 121.299 224.196 121.526 224.122C121.753 224.045 121.956 223.932 122.135 223.781C122.314 223.628 122.465 223.437 122.587 223.21L123.507 223.483C123.351 223.812 123.131 224.102 122.847 224.352C122.566 224.599 122.236 224.793 121.858 224.932C121.483 225.068 121.073 225.136 120.627 225.136ZM128.845 218.455L128.708 219.307H125.316L125.453 218.455H128.845ZM126.697 216.886H127.703L126.663 223.125C126.617 223.409 126.625 223.622 126.684 223.764C126.747 223.903 126.84 223.997 126.965 224.045C127.093 224.091 127.231 224.114 127.379 224.114C127.49 224.114 127.581 224.108 127.652 224.097C127.723 224.082 127.779 224.071 127.822 224.062L127.89 224.966C127.813 224.991 127.71 225.017 127.579 225.043C127.451 225.071 127.294 225.085 127.106 225.085C126.822 225.085 126.555 225.024 126.305 224.902C126.055 224.78 125.863 224.594 125.73 224.344C125.596 224.094 125.561 223.778 125.623 223.398L126.697 216.886ZM129.514 227.455C129.343 227.455 129.193 227.44 129.062 227.412C128.934 227.386 128.846 227.361 128.798 227.335L129.207 226.449C129.44 226.511 129.647 226.53 129.829 226.504C130.014 226.482 130.188 226.392 130.353 226.236C130.521 226.082 130.696 225.841 130.877 225.511L131.159 225L129.846 218.455H130.894L131.832 223.688H131.9L134.576 218.455H135.71L131.696 225.946C131.508 226.295 131.302 226.581 131.078 226.803C130.853 227.024 130.61 227.188 130.349 227.293C130.088 227.401 129.809 227.455 129.514 227.455ZM139.321 225L140.412 218.455H141.418L140.327 225H139.321ZM141.222 217.347C141.026 217.347 140.857 217.28 140.715 217.146C140.576 217.013 140.506 216.852 140.506 216.665C140.506 216.477 140.576 216.317 140.715 216.183C140.857 216.05 141.026 215.983 141.222 215.983C141.418 215.983 141.585 216.05 141.725 216.183C141.867 216.317 141.938 216.477 141.938 216.665C141.938 216.852 141.867 217.013 141.725 217.146C141.585 217.28 141.418 217.347 141.222 217.347ZM147.658 219.92L146.703 220.176C146.669 220.023 146.609 219.875 146.524 219.733C146.442 219.588 146.314 219.47 146.141 219.379C145.97 219.286 145.737 219.239 145.442 219.239C145.041 219.239 144.693 219.331 144.398 219.516C144.102 219.697 143.933 219.929 143.891 220.21C143.848 220.457 143.905 220.655 144.061 220.803C144.217 220.95 144.479 221.071 144.845 221.165L145.783 221.403C146.345 221.548 146.746 221.766 146.984 222.055C147.226 222.342 147.308 222.716 147.231 223.176C147.169 223.551 147.006 223.886 146.741 224.182C146.477 224.477 146.139 224.71 145.727 224.881C145.315 225.051 144.856 225.136 144.351 225.136C143.677 225.136 143.146 224.991 142.757 224.702C142.368 224.409 142.16 223.986 142.135 223.432L143.141 223.193C143.166 223.543 143.291 223.807 143.516 223.986C143.743 224.162 144.061 224.25 144.47 224.25C144.939 224.25 145.329 224.151 145.642 223.952C145.954 223.75 146.132 223.509 146.175 223.227C146.217 222.997 146.172 222.805 146.038 222.652C145.908 222.499 145.68 222.384 145.356 222.307L144.317 222.051C143.737 221.906 143.331 221.685 143.098 221.386C142.868 221.088 142.791 220.713 142.868 220.261C142.93 219.892 143.089 219.565 143.345 219.281C143.604 218.997 143.927 218.774 144.317 218.612C144.709 218.45 145.135 218.369 145.595 218.369C146.243 218.369 146.727 218.511 147.048 218.795C147.369 219.077 147.572 219.452 147.658 219.92ZM154.515 225.136C153.913 225.136 153.409 224.993 153.002 224.706C152.596 224.419 152.309 224.017 152.142 223.5C151.977 222.983 151.95 222.381 152.061 221.693C152.169 221.023 152.383 220.439 152.704 219.942C153.028 219.442 153.43 219.055 153.91 218.783C154.393 218.507 154.924 218.369 155.504 218.369C156.106 218.369 156.609 218.514 157.012 218.804C157.419 219.091 157.706 219.494 157.873 220.014C158.041 220.531 158.069 221.136 157.958 221.83C157.85 222.494 157.633 223.075 157.306 223.572C156.983 224.067 156.581 224.452 156.1 224.727C155.623 225 155.095 225.136 154.515 225.136ZM154.532 224.233C154.992 224.233 155.392 224.115 155.73 223.879C156.071 223.643 156.346 223.332 156.556 222.946C156.769 222.56 156.913 222.142 156.987 221.693C157.055 221.267 157.052 220.871 156.978 220.504C156.904 220.135 156.747 219.838 156.505 219.614C156.264 219.386 155.924 219.273 155.487 219.273C155.027 219.273 154.625 219.392 154.281 219.631C153.94 219.869 153.664 220.183 153.454 220.572C153.244 220.962 153.103 221.381 153.032 221.83C152.964 222.256 152.965 222.652 153.036 223.018C153.11 223.382 153.268 223.676 153.509 223.901C153.754 224.122 154.095 224.233 154.532 224.233ZM163.542 222.324L164.19 218.455H165.195L164.104 225H163.099L163.286 223.892H163.218C163.013 224.224 162.728 224.507 162.361 224.74C161.995 224.97 161.565 225.085 161.07 225.085C160.661 225.085 160.312 224.996 160.022 224.817C159.735 224.635 159.53 224.362 159.408 223.999C159.289 223.632 159.275 223.17 159.366 222.614L160.065 218.455H161.07L160.388 222.545C160.312 223.023 160.384 223.403 160.606 223.688C160.827 223.972 161.147 224.114 161.565 224.114C161.815 224.114 162.079 224.05 162.357 223.922C162.638 223.794 162.888 223.598 163.107 223.334C163.329 223.07 163.474 222.733 163.542 222.324ZM165.946 225L167.037 218.455H168.009L167.838 219.443H167.907C168.077 219.119 168.337 218.857 168.686 218.655C169.036 218.453 169.407 218.352 169.799 218.352C169.875 218.352 169.968 218.354 170.076 218.357C170.184 218.357 170.267 218.361 170.327 218.369L170.157 219.392C170.122 219.384 170.046 219.371 169.926 219.354C169.807 219.334 169.679 219.324 169.543 219.324C169.225 219.324 168.931 219.391 168.661 219.524C168.391 219.655 168.165 219.837 167.983 220.07C167.801 220.3 167.685 220.562 167.634 220.858L166.952 225H165.946ZM173.4 227.455L174.909 218.455H175.881L175.71 219.494H175.829C175.92 219.381 176.045 219.236 176.204 219.06C176.366 218.881 176.584 218.722 176.856 218.582C177.132 218.44 177.483 218.369 177.909 218.369C178.46 218.369 178.922 218.507 179.294 218.783C179.666 219.058 179.929 219.449 180.082 219.955C180.236 220.46 180.256 221.057 180.142 221.744C180.028 222.438 179.811 223.038 179.49 223.547C179.169 224.053 178.777 224.445 178.314 224.723C177.851 224.999 177.347 225.136 176.801 225.136C176.381 225.136 176.055 225.067 175.825 224.928C175.595 224.786 175.427 224.625 175.322 224.446C175.217 224.264 175.136 224.114 175.079 223.994H174.994L174.415 227.455H173.4ZM175.352 221.727C175.273 222.222 175.273 222.658 175.352 223.036C175.435 223.411 175.598 223.705 175.842 223.918C176.089 224.128 176.415 224.233 176.818 224.233C177.239 224.233 177.606 224.122 177.922 223.901C178.24 223.676 178.501 223.375 178.706 222.997C178.913 222.616 179.057 222.193 179.136 221.727C179.21 221.267 179.207 220.852 179.128 220.483C179.048 220.111 178.886 219.817 178.642 219.601C178.398 219.382 178.062 219.273 177.636 219.273C177.227 219.273 176.865 219.376 176.55 219.584C176.237 219.788 175.979 220.075 175.774 220.445C175.572 220.811 175.432 221.239 175.352 221.727ZM181.134 225L182.225 218.455H183.196L183.026 219.443H183.094C183.264 219.119 183.524 218.857 183.874 218.655C184.223 218.453 184.594 218.352 184.986 218.352C185.063 218.352 185.155 218.354 185.263 218.357C185.371 218.357 185.455 218.361 185.514 218.369L185.344 219.392C185.31 219.384 185.233 219.371 185.114 219.354C184.995 219.334 184.867 219.324 184.73 219.324C184.412 219.324 184.118 219.391 183.848 219.524C183.578 219.655 183.353 219.837 183.171 220.07C182.989 220.3 182.872 220.562 182.821 220.858L182.139 225H181.134ZM185.622 225L186.713 218.455H187.719L186.628 225H185.622ZM187.523 217.347C187.327 217.347 187.158 217.28 187.016 217.146C186.876 217.013 186.807 216.852 186.807 216.665C186.807 216.477 186.876 216.317 187.016 216.183C187.158 216.05 187.327 215.983 187.523 215.983C187.719 215.983 187.886 216.05 188.025 216.183C188.168 216.317 188.239 216.477 188.239 216.665C188.239 216.852 188.168 217.013 188.025 217.146C187.886 217.28 187.719 217.347 187.523 217.347ZM191.171 225.136C190.569 225.136 190.065 224.993 189.659 224.706C189.252 224.419 188.965 224.017 188.798 223.5C188.633 222.983 188.606 222.381 188.717 221.693C188.825 221.023 189.039 220.439 189.36 219.942C189.684 219.442 190.086 219.055 190.566 218.783C191.049 218.507 191.581 218.369 192.16 218.369C192.762 218.369 193.265 218.514 193.669 218.804C194.075 219.091 194.362 219.494 194.529 220.014C194.697 220.531 194.725 221.136 194.615 221.83C194.507 222.494 194.289 223.075 193.963 223.572C193.639 224.067 193.237 224.452 192.757 224.727C192.279 225 191.751 225.136 191.171 225.136ZM191.188 224.233C191.649 224.233 192.048 224.115 192.386 223.879C192.727 223.643 193.002 223.332 193.213 222.946C193.426 222.56 193.569 222.142 193.643 221.693C193.711 221.267 193.708 220.871 193.634 220.504C193.561 220.135 193.403 219.838 193.161 219.614C192.92 219.386 192.581 219.273 192.143 219.273C191.683 219.273 191.281 219.392 190.937 219.631C190.596 219.869 190.321 220.183 190.11 220.572C189.9 220.962 189.759 221.381 189.688 221.83C189.62 222.256 189.622 222.652 189.693 223.018C189.767 223.382 189.924 223.676 190.166 223.901C190.41 224.122 190.751 224.233 191.188 224.233ZM195.63 225L196.721 218.455H197.692L197.522 219.443H197.59C197.761 219.119 198.021 218.857 198.37 218.655C198.719 218.453 199.09 218.352 199.482 218.352C199.559 218.352 199.651 218.354 199.759 218.357C199.867 218.357 199.951 218.361 200.011 218.369L199.84 219.392C199.806 219.384 199.729 219.371 199.61 219.354C199.491 219.334 199.363 219.324 199.226 219.324C198.908 219.324 198.614 219.391 198.344 219.524C198.074 219.655 197.849 219.837 197.667 220.07C197.485 220.3 197.369 220.562 197.317 220.858L196.636 225H195.63ZM200.118 225L201.209 218.455H202.215L201.124 225H200.118ZM202.019 217.347C201.823 217.347 201.654 217.28 201.512 217.146C201.372 217.013 201.303 216.852 201.303 216.665C201.303 216.477 201.372 216.317 201.512 216.183C201.654 216.05 201.823 215.983 202.019 215.983C202.215 215.983 202.382 216.05 202.522 216.183C202.664 216.317 202.735 216.477 202.735 216.665C202.735 216.852 202.664 217.013 202.522 217.146C202.382 217.28 202.215 217.347 202.019 217.347ZM206.903 218.455L206.767 219.307H203.375L203.511 218.455H206.903ZM204.756 216.886H205.761L204.722 223.125C204.676 223.409 204.683 223.622 204.743 223.764C204.805 223.903 204.899 223.997 205.024 224.045C205.152 224.091 205.29 224.114 205.437 224.114C205.548 224.114 205.639 224.108 205.71 224.097C205.781 224.082 205.838 224.071 205.881 224.062L205.949 224.966C205.872 224.991 205.768 225.017 205.638 225.043C205.51 225.071 205.352 225.085 205.165 225.085C204.881 225.085 204.614 225.024 204.364 224.902C204.114 224.78 203.922 224.594 203.788 224.344C203.655 224.094 203.619 223.778 203.682 223.398L204.756 216.886ZM207.572 227.455C207.402 227.455 207.251 227.44 207.121 227.412C206.993 227.386 206.905 227.361 206.856 227.335L207.266 226.449C207.498 226.511 207.706 226.53 207.888 226.504C208.072 226.482 208.247 226.392 208.412 226.236C208.579 226.082 208.754 225.841 208.936 225.511L209.217 225L207.905 218.455H208.953L209.891 223.688H209.959L212.635 218.455H213.768L209.754 225.946C209.567 226.295 209.361 226.581 209.136 226.803C208.912 227.024 208.669 227.188 208.408 227.293C208.146 227.401 207.868 227.455 207.572 227.455Z" fill="#BDBDBD"/>
</svg>
