<svg width="104" height="61" viewBox="0 0 104 61" fill="none" xmlns="http://www.w3.org/2000/svg">
<path d="M37.1027 35.1539C36.2939 34.8179 26.078 23.1693 26.078 22.5805C26.078 22.4181 29.9707 23.4826 34.7306 24.9434C44.6859 27.9971 45.2731 28.0915 42.5043 26.2155C39.9766 24.5018 39.9532 23.9507 42.3137 21.4707C49.6363 13.7741 60.5366 13.1551 70.8575 19.8476L74.1046 21.9539C56.7489 28.9597 57.1145 28.1066 62.5083 35.0444C64.2465 37.279 64.2932 37.4074 63.4843 37.5923C63.0177 37.7018 57.0756 37.2715 50.2858 36.6411C43.4959 36.0107 37.5616 35.3426 37.1027 35.1539Z" fill="#BBDEFB"/>
<path d="M4.2035 32.2889C2.00244 33.6855 1.82356 33.1042 3.91184 31.3415C11.8294 24.6452 24.0208 25.5436 32.1056 33.4175C34.7306 35.9768 38.9693 42.3862 38.4016 42.941C38.2733 43.0656 36.3211 43.2317 34.0656 43.3072C29.9668 43.4506 29.9668 43.4506 28.4696 40.9027C23.3792 32.2436 11.1217 27.8914 4.2035 32.2889Z" fill="#1E88E5"/>
<path d="M24.9852 45.538C24.7324 45.2926 21.5825 45.319 48.6952 45.3379L71.8996 45.353C88.5554 32.9909 89.722 32.6059 98.3279 33.912C103.154 34.6443 103.624 35.0897 100.327 35.8031C95.9363 36.7581 93.2764 38.5963 86.9376 45.0548C81.19 50.9131 81.0811 51.0037 79.4517 50.9999C78.5417 50.9999 65.9614 49.8147 51.4951 48.369C37.0288 46.9195 25.098 45.6437 24.9852 45.538Z" fill="#1E88E5"/>
<path d="M61.4582 29.4919C62.3604 28.6161 81.6993 20.8026 82.9632 20.8026C83.6515 20.8026 85.2537 21.1423 86.5254 21.5575C92.1524 23.3958 91.2891 22.32 83.9237 18.3113C78.0283 15.1066 77.9855 15.0726 76.8656 12.8909C75.2673 9.78431 75.5084 9.48233 78.7205 10.577C85.3509 12.8418 92.9224 18.2169 96.7101 23.3429C99.6034 27.2535 99.5684 27.3667 95.2012 28.3029C90.3519 29.3447 85.2693 32.1794 77.2467 38.3284C73.8401 40.9367 70.9974 43.0731 70.9274 43.0731C70.8574 43.0731 68.5902 40.1214 65.8914 36.5128C62.0532 31.3792 61.0887 29.8505 61.4582 29.4919Z" fill="#1E88E5"/>
<path d="M24.9114 21.935L8.18955 17.0279L5.07851 14.0082H18.6893L24.9114 21.935Z" fill="#1E88E5"/>
<path d="M38.6272 37.9659C38.7322 37.898 64.9738 39.7551 65.5493 39.8721C66.611 40.0873 64.651 40.3968 54.0774 41.6915C47.7659 42.4616 42.4732 43.0882 42.3138 43.0844C42.1543 43.0768 41.2366 41.9369 40.2799 40.5478C39.3194 39.1625 38.5766 37.9999 38.6272 37.9659Z" fill="#1E88E5"/>
</svg>
