<svg width="24" height="24" viewBox="0 0 24 24" fill="none" xmlns="http://www.w3.org/2000/svg">
<path d="M19 11C20.6569 11 22 9.65685 22 8C22 6.34315 20.6569 5 19 5C17.3431 5 16 6.34315 16 8C16 9.65685 17.3431 11 19 11Z" fill="#1E88E5"/>
<path d="M6 19C7.65685 19 9 17.6569 9 16C9 14.3431 7.65685 13 6 13C4.34315 13 3 14.3431 3 16C3 17.6569 4.34315 19 6 19Z" fill="#1E88E5"/>
<path d="M16 8C16 6.34315 17.3431 5 19 5C20.6569 5 22 6.34315 22 8C22 9.65685 20.6569 11 19 11C17.3431 11 16 9.65685 16 8ZM16 8H4M9 16C9 17.6569 7.65685 19 6 19C4.34315 19 3 17.6569 3 16C3 14.3431 4.34315 13 6 13C7.65685 13 9 14.3431 9 16ZM9 16H20" stroke="#1E88E5" stroke-width="2"/>
</svg>
