<svg xmlns="http://www.w3.org/2000/svg" style="display:none">
  <symbol id="icon-home" viewBox="0 0 24 24">
    <path fill="currentColor" d="M12 3l9 8h-3v9h-4v-6H10v6H6v-9H3z"/>
  </symbol>
  <symbol id="icon-analytics" viewBox="0 0 24 24">
    <path fill="currentColor" d="M3 17h3v-7H3v7zm5 0h3v-12H8v12zm5 0h3v-4h-3v4zm5 0h3v-9h-3v9z"/>
  </symbol>
  <symbol id="icon-management" viewBox="0 0 24 24">
    <path fill="currentColor" d="M19.14,12.94a7.07,7.07,0,0,0,0-1.88l2.11-1.65a.5.5,0,0,0,.12-.64l-2-3.46a.5.5,0,0,0-.61-.22l-2.49,1a7,7,0,0,0-1.62-.94l-.38-2.65A.5.5,0,0,0,13,2H11a.5.5,0,0,0-.5.42l-.38,2.65a7,7,0,0,0-1.62.94l-2.49-1a.5.5,0,0,0-.61.22l-2,3.46a.5.5,0,0,0,.12.64l2.11,1.65a7.07,7.07,0,0,0,0,1.88L2.14,14.59a.5.5,0,0,0-.12.64l2,3.46a.5.5,0,0,0,.61.22l2.49-1a7,7,0,0,0,1.62.94l.38,2.65A.5.5,0,0,0,11,22h2a.5.5,0,0,0,.5-.42l.38-2.65a7,7,0,0,0,1.62-.94l2.49,1a.5.5,0,0,0,.61-.22l2-3.46a.5.5,0,0,0-.12-.64ZM12,15.5A3.5,3.5,0,1,1,15.5,12,3.5,3.5,0,0,1,12,15.5Z"/>
  </symbol>
</svg>
