<?xml version="1.0" encoding="UTF-8"?>
<svg id="Layer_1" xmlns="http://www.w3.org/2000/svg" version="1.1" viewBox="0 0 309 73">
  <!-- Generator: Adobe Illustrator 29.6.1, SVG Export Plug-In . SVG Version: 2.1.1 Build 9)  -->
  <defs>
    <style>
      .st0 {
        fill: #1e88e5;
      }

      .st1 {
        fill: #616161;
      }

      .st2 {
        fill: #bbdefb;
      }
    </style>
  </defs>
  <path class="st2" d="M43.13,41.15c-.81-.34-11.02-11.98-11.02-12.57,0-.16,3.89.9,8.65,2.36,9.96,3.05,10.54,3.15,7.77,1.27-2.53-1.71-2.55-2.26-.19-4.74,7.32-7.7,18.22-8.32,28.54-1.62l3.25,2.11c-17.36,7.01-16.99,6.15-11.6,13.09,1.74,2.23,1.78,2.36.98,2.55-.47.11-6.41-.32-13.2-.95-6.79-.63-12.72-1.3-13.18-1.49Z"/>
  <path class="st0" d="M10.23,38.29c-2.2,1.4-2.38.82-.29-.95,7.92-6.7,20.11-5.8,28.19,2.08,2.62,2.56,6.86,8.97,6.3,9.52-.13.12-2.08.29-4.34.37q-4.1.14-5.6-2.4c-5.09-8.66-17.35-13.01-24.27-8.61Z"/>
  <path class="st0" d="M31.01,51.54c-.25-.25-3.4-.22,23.71-.2l23.2.02c16.66-12.36,17.82-12.75,26.43-11.44,4.83.73,5.3,1.18,2,1.89-4.39.95-7.05,2.79-13.39,9.25-5.75,5.86-5.86,5.95-7.49,5.95-.91,0-13.49-1.19-27.96-2.63-14.47-1.45-26.4-2.73-26.51-2.83Z"/>
  <path class="st0" d="M67.49,35.49c.9-.88,20.24-8.69,21.5-8.69.69,0,2.29.34,3.56.75,5.63,1.84,4.76.76-2.6-3.25-5.9-3.2-5.94-3.24-7.06-5.42-1.6-3.11-1.36-3.41,1.86-2.31,6.63,2.26,14.2,7.64,17.99,12.77,2.89,3.91,2.86,4.02-1.51,4.96-4.85,1.04-9.93,3.88-17.96,10.03-3.41,2.61-6.25,4.74-6.32,4.74s-2.34-2.95-5.04-6.56c-3.84-5.13-4.8-6.66-4.43-7.02Z"/>
  <path class="st0" d="M30.94,27.93l-16.72-4.91-3.11-3.02h13.61l6.22,7.93Z"/>
  <path class="st0" d="M44.66,43.97c.11-.07,26.35,1.79,26.92,1.91,1.06.22-.9.52-11.47,1.82-6.31.77-11.6,1.4-11.76,1.39-.16,0-1.08-1.15-2.03-2.54-.96-1.39-1.7-2.55-1.65-2.58Z"/>
  <path d="M131.82,21.06c-.06-.8-.37-1.43-.9-1.88-.53-.45-1.34-.67-2.42-.67-.69,0-1.25.08-1.7.25-.43.16-.76.38-.96.66-.21.28-.32.6-.32.96-.02.3.04.57.16.81.13.23.33.45.6.64.27.18.62.35,1.05.51.42.15.93.29,1.52.41l2.02.43c1.36.29,2.53.67,3.5,1.14.97.47,1.76,1.03,2.38,1.67.62.63,1.07,1.35,1.36,2.14.3.79.45,1.66.46,2.6,0,1.62-.41,2.99-1.21,4.12-.8,1.12-1.95,1.98-3.44,2.56-1.48.59-3.27.88-5.35.88s-4.01-.32-5.61-.95c-1.59-.63-2.82-1.61-3.71-2.92-.88-1.32-1.32-3.02-1.32-5.08h6.35c.04.75.23,1.39.57,1.9.34.51.81.9,1.42,1.17.62.26,1.35.4,2.2.4.71,0,1.31-.09,1.79-.26.48-.18.85-.42,1.1-.73.25-.31.38-.67.39-1.07,0-.38-.13-.71-.37-.99-.23-.29-.62-.55-1.16-.77-.54-.23-1.26-.45-2.18-.65l-2.46-.53c-2.18-.47-3.9-1.26-5.16-2.37-1.25-1.12-1.87-2.64-1.87-4.56,0-1.56.41-2.93,1.25-4.1.85-1.18,2.03-2.1,3.53-2.76,1.51-.66,3.24-.99,5.19-.99s3.71.33,5.16,1c1.45.67,2.57,1.6,3.36,2.82.79,1.2,1.19,2.61,1.2,4.22h-6.4ZM146.35,38.29c-1.18,0-2.22-.19-3.13-.58-.9-.39-1.6-.99-2.12-1.78-.51-.79-.77-1.81-.77-3.03,0-1.01.17-1.87.52-2.59.35-.72.83-1.31,1.44-1.77.62-.46,1.34-.81,2.15-1.05.83-.24,1.72-.4,2.67-.47,1.04-.08,1.86-.18,2.49-.29.63-.12,1.09-.28,1.37-.49.28-.22.42-.5.42-.85v-.05c0-.48-.18-.85-.55-1.11-.37-.26-.84-.39-1.42-.39-.63,0-1.15.14-1.55.42-.39.27-.63.69-.71,1.26h-6.11c.08-1.12.44-2.16,1.07-3.1.64-.95,1.58-1.72,2.8-2.29,1.23-.58,2.76-.87,4.6-.87,1.32,0,2.51.16,3.56.47,1.05.3,1.95.73,2.68,1.29.74.55,1.3,1.19,1.68,1.93.39.73.59,1.52.59,2.38v12.66h-6.21v-2.6h-.14c-.37.69-.82,1.25-1.35,1.67-.52.43-1.12.73-1.79.93-.67.19-1.4.29-2.2.29ZM148.52,34.1c.51,0,.98-.1,1.42-.31.45-.21.81-.51,1.1-.9.28-.39.42-.87.42-1.43v-1.54c-.18.07-.37.14-.57.2-.19.06-.4.12-.62.18-.22.06-.45.11-.7.16-.24.05-.49.09-.76.13-.51.08-.93.21-1.26.4-.32.18-.56.4-.72.66-.15.26-.23.55-.23.87,0,.51.18.91.54,1.18.36.27.82.41,1.38.41ZM172.29,19.52v4.81h-12.37v-4.81h12.37ZM162.28,38v-19.01c0-1.52.27-2.79.82-3.79.55-1,1.32-1.75,2.31-2.25.99-.5,2.17-.75,3.51-.75.84,0,1.66.06,2.46.19.8.13,1.4.24,1.78.34l-.96,4.77c-.24-.07-.52-.13-.84-.17-.32-.05-.6-.07-.84-.07-.62,0-1.05.13-1.26.4-.22.26-.32.61-.32,1.05v19.3h-6.64ZM183.15,38.34c-1.97,0-3.67-.38-5.1-1.13-1.42-.76-2.51-1.85-3.28-3.27-.76-1.43-1.14-3.14-1.14-5.13s.39-3.58,1.16-5.01c.77-1.43,1.86-2.54,3.26-3.33,1.4-.79,3.06-1.19,4.97-1.19,1.4,0,2.66.22,3.79.65,1.13.43,2.1,1.06,2.9,1.89.8.82,1.42,1.81,1.85,2.98.43,1.17.65,2.49.65,3.96v1.54h-16.51v-3.66h10.4c0-.53-.14-.99-.41-1.4-.26-.41-.61-.73-1.05-.95-.43-.23-.93-.35-1.48-.35s-1.03.12-1.48.35c-.45.22-.81.54-1.08.94-.26.4-.4.87-.42,1.41v3.95c0,.59.12,1.12.37,1.59.25.47.61.83,1.07,1.1.47.26,1.03.4,1.69.4.46,0,.88-.06,1.25-.19.38-.13.71-.31.99-.55.27-.25.47-.55.6-.89h6.07c-.21,1.28-.7,2.4-1.48,3.35-.78.94-1.81,1.67-3.09,2.19-1.28.51-2.77.77-4.48.77ZM201.57,38V13.35h10.69c1.88,0,3.45.25,4.73.76,1.28.51,2.25,1.22,2.9,2.14.66.92.99,2.01.99,3.26,0,.91-.2,1.73-.6,2.48-.39.75-.95,1.37-1.66,1.88-.71.5-1.55.84-2.5,1.04v.24c1.06.04,2.02.31,2.89.81.87.49,1.56,1.17,2.07,2.03.51.86.77,1.87.77,3.03,0,1.35-.35,2.55-1.06,3.6-.7,1.05-1.69,1.88-2.98,2.48-1.29.6-2.83.9-4.62.9h-11.6ZM208.26,32.66h3.13c1.12,0,1.97-.21,2.53-.63.56-.43.84-1.05.84-1.88,0-.58-.13-1.07-.4-1.47-.26-.4-.64-.71-1.13-.91-.48-.21-1.06-.31-1.75-.31h-3.23v5.2ZM208.26,23.32h2.74c.59,0,1.1-.09,1.55-.28.45-.18.8-.45,1.05-.79.26-.35.38-.78.38-1.29,0-.76-.27-1.34-.82-1.74-.54-.41-1.24-.61-2.07-.61h-2.84v4.72ZM236.29,29.91v-10.4h6.64v18.48h-6.31v-3.51h-.19c-.4,1.18-1.1,2.1-2.11,2.77-1,.66-2.19.99-3.57.99-1.29,0-2.42-.3-3.39-.89-.96-.59-1.71-1.41-2.25-2.46-.53-1.04-.8-2.24-.81-3.59v-11.79h6.64v10.4c0,.91.24,1.63.7,2.15.47.52,1.11.78,1.95.78.55,0,1.03-.12,1.43-.35.41-.24.72-.58.94-1.01.22-.44.33-.97.32-1.58ZM253,38.24c-1.31,0-2.53-.35-3.63-1.03-1.1-.69-1.98-1.74-2.65-3.14-.66-1.4-.99-3.17-.99-5.31s.35-4.04,1.03-5.44c.7-1.4,1.6-2.42,2.7-3.07,1.11-.65,2.27-.97,3.49-.97.91,0,1.72.16,2.41.48.69.31,1.27.73,1.73,1.26.46.52.82,1.1,1.06,1.72h.1v-9.39h6.64v24.65h-6.6v-3.03h-.14c-.26.63-.63,1.19-1.11,1.68-.47.49-1.05.88-1.73,1.17-.67.28-1.44.42-2.31.42ZM255.45,33.14c.61,0,1.13-.18,1.57-.53.44-.36.78-.87,1.01-1.52.24-.66.36-1.44.36-2.33s-.12-1.7-.36-2.35c-.23-.66-.57-1.16-1.01-1.5-.43-.35-.96-.53-1.57-.53s-1.13.18-1.56.53c-.43.34-.75.85-.99,1.5-.23.65-.34,1.43-.34,2.35s.11,1.7.34,2.36c.23.65.56,1.15.99,1.5.43.34.96.52,1.56.52ZM274.84,38.24c-1.32,0-2.53-.35-3.64-1.03-1.1-.69-1.98-1.74-2.65-3.14-.66-1.4-.99-3.17-.99-5.31s.35-4.04,1.04-5.44c.7-1.4,1.6-2.42,2.7-3.07,1.11-.65,2.27-.97,3.49-.97.91,0,1.72.16,2.41.48.69.31,1.27.73,1.73,1.26.47.52.82,1.1,1.06,1.72h.1v-9.39h6.64v24.65h-6.6v-3.03h-.14c-.26.63-.62,1.19-1.11,1.68-.47.49-1.05.88-1.73,1.17-.67.28-1.44.42-2.31.42ZM277.3,33.14c.61,0,1.13-.18,1.56-.53.44-.36.78-.87,1.01-1.52.24-.66.36-1.44.36-2.33s-.12-1.7-.36-2.35c-.23-.66-.57-1.16-1.01-1.5-.43-.35-.95-.53-1.56-.53s-1.13.18-1.57.53c-.42.34-.75.85-.99,1.5-.22.65-.34,1.43-.34,2.35s.11,1.7.34,2.36c.23.65.56,1.15.99,1.5.43.34.96.52,1.57.52ZM294.04,44.93c-.76,0-1.49-.06-2.18-.18-.69-.11-1.3-.27-1.82-.47l1.44-4.72c.55.19,1.04.32,1.49.37.46.06.85.02,1.17-.1.33-.12.57-.35.71-.69l.14-.34-6.5-19.3h6.93l2.98,12.8h.19l3.03-12.8h6.98l-6.74,20.03c-.34,1.02-.83,1.93-1.47,2.74-.63.82-1.47,1.46-2.5,1.94-1.03.47-2.33.71-3.88.71Z"/>
  <path class="st1" d="M118.15,59.27h1.21l1.76,4.07h.1l3.08-4.07h1.21l-4,5.13-.6,3.6h-1.06l.6-3.6-2.3-5.13ZM127.08,68.14c-.6,0-1.11-.14-1.51-.43-.41-.29-.69-.69-.86-1.21-.17-.52-.19-1.12-.08-1.81.11-.67.32-1.25.64-1.75.32-.5.73-.89,1.21-1.16.48-.28,1.01-.41,1.59-.41s1.11.14,1.51.43c.41.29.69.69.86,1.21.17.52.2,1.12.08,1.82-.11.66-.32,1.25-.65,1.74-.32.49-.73.88-1.21,1.15-.48.27-1.01.41-1.58.41ZM127.09,67.23c.46,0,.86-.12,1.2-.35.34-.24.62-.55.83-.93.21-.39.36-.8.43-1.25.07-.43.07-.82,0-1.19-.07-.37-.23-.67-.47-.89-.24-.23-.58-.34-1.02-.34-.46,0-.86.12-1.21.36-.34.24-.62.55-.83.94-.21.39-.35.81-.42,1.26-.07.43-.07.82,0,1.19.07.36.23.66.47.88.24.22.58.33,1.02.33ZM136.1,65.32l.65-3.87h1.01l-1.09,6.55h-1.01l.19-1.11h-.07c-.2.33-.49.62-.86.85-.37.23-.8.35-1.29.35-.41,0-.76-.09-1.05-.27-.29-.18-.49-.45-.61-.82-.12-.37-.13-.83-.04-1.38l.7-4.16h1.01l-.68,4.09c-.08.48,0,.86.22,1.14.22.28.54.43.96.43.25,0,.51-.06.79-.19.28-.13.53-.32.75-.59.22-.26.37-.6.43-1.01ZM138.51,68l1.09-6.55h.97l-.17.99h.07c.17-.32.43-.59.78-.79.35-.2.72-.3,1.11-.3.08,0,.17,0,.28,0,.11,0,.19,0,.25.01l-.17,1.02s-.11-.02-.23-.04c-.12-.02-.25-.03-.38-.03-.32,0-.61.07-.88.2-.27.13-.49.31-.68.55-.18.23-.3.49-.35.79l-.68,4.14h-1.01ZM151.86,62.92l-.95.26c-.03-.15-.09-.3-.18-.44-.08-.14-.21-.26-.38-.35-.17-.09-.4-.14-.7-.14-.4,0-.75.09-1.04.28-.3.18-.46.41-.51.69-.04.25.01.44.17.59.16.15.42.27.78.36l.94.24c.56.14.96.36,1.2.65.24.29.32.66.25,1.12-.06.38-.23.71-.49,1.01-.26.3-.6.53-1.01.7-.41.17-.87.26-1.38.26-.67,0-1.21-.14-1.59-.43-.39-.29-.6-.72-.62-1.27l1.01-.24c.03.35.15.61.38.79.23.18.54.26.95.26.47,0,.86-.1,1.17-.3.31-.2.49-.44.53-.72.04-.23,0-.42-.14-.58-.13-.15-.36-.27-.68-.35l-1.04-.26c-.58-.14-.99-.37-1.22-.66-.23-.3-.31-.67-.23-1.12.06-.37.22-.7.48-.98.26-.28.58-.51.97-.67.39-.16.82-.24,1.28-.24.65,0,1.13.14,1.45.43.32.28.53.66.61,1.12ZM154.55,68.15c-.41,0-.78-.08-1.09-.23-.31-.16-.54-.39-.69-.69-.15-.3-.19-.66-.12-1.09.07-.38.19-.68.38-.91.19-.24.42-.42.68-.55.27-.14.56-.24.87-.3.31-.07.62-.12.93-.16.4-.05.73-.09.99-.12.25-.03.44-.08.57-.14.13-.07.21-.18.23-.34v-.03c.07-.42.01-.74-.17-.98-.18-.24-.5-.35-.96-.35s-.88.11-1.2.32c-.32.21-.56.43-.71.67l-.89-.34c.23-.4.51-.71.83-.93.32-.22.66-.38,1.02-.47.35-.09.7-.14,1.03-.14.21,0,.45.03.71.08.26.05.51.15.74.3.23.15.41.38.53.69.12.31.14.72.05,1.24l-.72,4.31h-1.01l.15-.89h-.05c-.09.14-.23.29-.42.46-.18.16-.42.3-.7.41-.28.11-.61.17-.99.17ZM154.84,67.25c.4,0,.74-.08,1.04-.23.3-.16.54-.36.72-.61.19-.25.3-.51.35-.78l.15-.92c-.05.05-.15.1-.3.14-.15.04-.32.08-.51.11-.19.03-.37.05-.55.08-.18.02-.32.04-.43.05-.27.03-.52.09-.76.17-.24.07-.44.19-.6.34-.16.15-.26.35-.3.61-.06.35.02.61.25.79.23.18.54.26.94.26ZM163.41,61.45l-.14.85h-3.53l.14-.85h3.53ZM159.85,68l1.24-7.45c.06-.38.19-.69.41-.94.22-.25.48-.44.78-.56.3-.12.61-.19.93-.19.25,0,.44.02.59.06.15.04.26.08.33.11l-.43.87c-.05-.02-.12-.04-.21-.06-.08-.03-.2-.04-.34-.04-.33,0-.59.08-.76.25-.17.17-.29.41-.35.74l-1.19,7.21h-1.01ZM166.18,68.14c-.63,0-1.15-.14-1.55-.42-.41-.28-.7-.67-.86-1.18-.16-.51-.19-1.09-.08-1.76.11-.67.33-1.26.66-1.77.33-.51.74-.91,1.23-1.2.49-.29,1.03-.43,1.62-.43.34,0,.67.06.98.17.32.11.59.3.82.55.23.25.39.59.48,1.01.09.42.08.93-.02,1.54l-.07.43h-5.05l.14-.87h4.02c.07-.37.05-.7-.05-.99-.1-.29-.26-.52-.51-.69-.24-.17-.54-.25-.91-.25s-.73.1-1.06.31c-.33.2-.6.46-.82.77-.22.31-.35.62-.41.94l-.12.75c-.09.54-.07.97.04,1.3.11.32.31.55.59.69.28.14.63.21,1.06.21.27,0,.52-.04.74-.11.23-.08.43-.19.61-.34.18-.15.33-.34.45-.57l.92.27c-.16.33-.38.62-.66.87-.28.25-.61.44-.99.58-.38.14-.79.2-1.23.2ZM174.4,61.45l-.14.85h-3.39l.14-.85h3.39ZM172.25,59.89h1.01l-1.04,6.24c-.05.28-.04.5.02.64.06.14.16.23.28.28.13.05.27.07.41.07.11,0,.2,0,.27-.02.07-.01.13-.03.17-.03l.07.9c-.08.03-.18.05-.31.08-.13.03-.29.04-.47.04-.28,0-.55-.06-.8-.18-.25-.12-.44-.31-.58-.56-.13-.25-.17-.57-.11-.95l1.07-6.51ZM175.07,70.45c-.17,0-.32-.01-.45-.04-.13-.03-.22-.05-.26-.08l.41-.89c.23.06.44.08.62.06.18-.02.36-.11.52-.27.17-.15.34-.39.52-.72l.28-.51-1.31-6.55h1.05l.94,5.23h.07l2.68-5.23h1.13l-4.01,7.49c-.19.35-.39.64-.62.86-.22.22-.47.38-.73.49-.26.11-.54.16-.84.16ZM184.88,68l1.09-6.55h1.01l-1.09,6.55h-1.01ZM186.78,60.35c-.2,0-.37-.07-.51-.2-.14-.13-.21-.29-.21-.48s.07-.35.21-.48c.14-.13.31-.2.51-.2s.36.07.5.2c.14.13.21.29.21.48s-.07.35-.21.48c-.14.13-.31.2-.5.2ZM193.21,62.92l-.95.26c-.03-.15-.09-.3-.18-.44-.08-.14-.21-.26-.38-.35-.17-.09-.4-.14-.7-.14-.4,0-.75.09-1.04.28-.29.18-.46.41-.51.69-.04.25.01.44.17.59.16.15.42.27.78.36l.94.24c.56.14.96.36,1.2.65.24.29.32.66.25,1.12-.06.38-.23.71-.49,1.01-.26.3-.6.53-1.01.7-.41.17-.87.26-1.38.26-.67,0-1.2-.14-1.59-.43-.39-.29-.6-.72-.62-1.27l1.01-.24c.03.35.15.61.38.79.23.18.55.26.95.26.47,0,.86-.1,1.17-.3.31-.2.49-.44.53-.72.04-.23,0-.42-.14-.58-.13-.15-.36-.27-.68-.35l-1.04-.26c-.58-.14-.99-.37-1.22-.66-.23-.3-.31-.67-.23-1.12.06-.37.22-.7.48-.98.26-.28.58-.51.97-.67.39-.16.82-.24,1.28-.24.65,0,1.13.14,1.45.43.32.28.52.66.61,1.12ZM200.07,68.14c-.6,0-1.11-.14-1.51-.43-.41-.29-.69-.69-.86-1.21-.16-.52-.19-1.12-.08-1.81.11-.67.32-1.25.64-1.75.32-.5.73-.89,1.21-1.16.48-.28,1.01-.41,1.59-.41s1.11.14,1.51.43c.41.29.69.69.86,1.21.17.52.2,1.12.09,1.82-.11.66-.32,1.25-.65,1.74-.32.49-.73.88-1.21,1.15-.48.27-1.01.41-1.58.41ZM200.09,67.23c.46,0,.86-.12,1.2-.35.34-.24.62-.55.83-.93.21-.39.36-.8.43-1.25.07-.43.07-.82,0-1.19-.07-.37-.23-.67-.47-.89-.24-.23-.58-.34-1.02-.34-.46,0-.86.12-1.21.36-.34.24-.62.55-.83.94-.21.39-.35.81-.42,1.26-.07.43-.07.82,0,1.19.07.36.23.66.47.88.24.22.59.33,1.02.33ZM209.1,65.32l.65-3.87h1.01l-1.09,6.55h-1.01l.19-1.11h-.07c-.2.33-.49.62-.86.85-.37.23-.8.35-1.29.35-.41,0-.76-.09-1.05-.27-.29-.18-.49-.45-.61-.82-.12-.37-.13-.83-.04-1.38l.7-4.16h1.01l-.68,4.09c-.08.48,0,.86.22,1.14.22.28.54.43.96.43.25,0,.51-.06.79-.19.28-.13.53-.32.75-.59.22-.26.37-.6.43-1.01ZM211.5,68l1.09-6.55h.97l-.17.99h.07c.17-.32.43-.59.78-.79.35-.2.72-.3,1.11-.3.08,0,.17,0,.28,0,.11,0,.19,0,.25.01l-.17,1.02s-.11-.02-.23-.04c-.12-.02-.25-.03-.38-.03-.32,0-.61.07-.88.2-.27.13-.49.31-.68.55-.18.23-.3.49-.35.79l-.68,4.14h-1.01ZM218.96,70.45l1.51-9h.97l-.17,1.04h.12c.09-.11.22-.26.38-.43.16-.18.38-.34.65-.48.28-.14.63-.21,1.05-.21.55,0,1.01.14,1.38.41.37.28.63.67.79,1.17.15.51.17,1.1.06,1.79-.11.69-.33,1.29-.65,1.8-.32.51-.71.9-1.18,1.18-.46.28-.97.41-1.51.41-.42,0-.75-.07-.98-.21-.23-.14-.4-.3-.5-.48-.1-.18-.19-.33-.24-.45h-.09l-.58,3.46h-1.01ZM220.91,64.73c-.08.49-.08.93,0,1.31.08.38.25.67.49.88.25.21.57.32.98.32s.79-.11,1.1-.33c.32-.22.58-.53.79-.9.21-.38.35-.8.43-1.27.07-.46.07-.88,0-1.24-.08-.37-.24-.67-.49-.88-.25-.22-.58-.33-1.01-.33s-.77.1-1.09.31c-.31.2-.57.49-.78.86-.2.37-.34.79-.42,1.28ZM226.69,68l1.09-6.55h.97l-.17.99h.07c.17-.32.43-.59.78-.79.35-.2.72-.3,1.11-.3.08,0,.17,0,.28,0,.11,0,.19,0,.25.01l-.17,1.02s-.11-.02-.23-.04c-.12-.02-.25-.03-.38-.03-.32,0-.61.07-.88.2-.27.13-.5.31-.68.55-.18.23-.3.49-.35.79l-.68,4.14h-1.01ZM231.18,68l1.09-6.55h1l-1.09,6.55h-1.01ZM233.08,60.35c-.2,0-.36-.07-.51-.2-.14-.13-.21-.29-.21-.48s.07-.35.21-.48c.14-.13.31-.2.51-.2s.36.07.5.2c.14.13.21.29.21.48s-.07.35-.21.48c-.14.13-.31.2-.5.2ZM236.73,68.14c-.6,0-1.11-.14-1.51-.43-.41-.29-.69-.69-.86-1.21-.16-.52-.19-1.12-.08-1.81.11-.67.32-1.25.64-1.75.32-.5.73-.89,1.21-1.16.48-.28,1.01-.41,1.59-.41s1.11.14,1.51.43c.41.29.69.69.86,1.21.17.52.2,1.12.09,1.82-.11.66-.33,1.25-.65,1.74-.32.49-.73.88-1.21,1.15-.48.27-1.01.41-1.59.41ZM236.74,67.23c.46,0,.86-.12,1.2-.35.34-.24.62-.55.83-.93.21-.39.36-.8.43-1.25.07-.43.07-.82,0-1.19-.07-.37-.23-.67-.47-.89-.24-.23-.58-.34-1.02-.34-.46,0-.86.12-1.21.36-.34.24-.62.55-.83.94-.21.39-.35.81-.42,1.26-.07.43-.07.82,0,1.19.07.36.23.66.47.88.24.22.59.33,1.02.33ZM241.19,68l1.09-6.55h.97l-.17.99h.07c.17-.32.43-.59.78-.79.35-.2.72-.3,1.11-.3.08,0,.17,0,.28,0,.11,0,.19,0,.25.01l-.17,1.02s-.11-.02-.23-.04c-.12-.02-.25-.03-.38-.03-.32,0-.61.07-.88.2-.27.13-.5.31-.68.55-.18.23-.3.49-.35.79l-.68,4.14h-1.01ZM245.68,68l1.09-6.55h1l-1.09,6.55h-1ZM247.57,60.35c-.2,0-.36-.07-.51-.2-.14-.13-.21-.29-.21-.48s.07-.35.21-.48c.14-.13.31-.2.51-.2s.36.07.5.2c.14.13.21.29.21.48s-.07.35-.21.48c-.14.13-.31.2-.5.2ZM252.46,61.45l-.14.85h-3.39l.14-.85h3.39ZM250.31,59.89h1.01l-1.04,6.24c-.04.28-.04.5.02.64.06.14.16.23.28.28.13.05.26.07.41.07.11,0,.2,0,.27-.02.07-.01.13-.03.17-.03l.07.9c-.08.03-.18.05-.31.08-.13.03-.29.04-.47.04-.28,0-.55-.06-.8-.18-.25-.12-.44-.31-.57-.56-.13-.25-.17-.57-.11-.95l1.07-6.51ZM253.13,70.45c-.17,0-.32-.01-.45-.04-.13-.03-.22-.05-.26-.08l.41-.89c.23.06.44.08.62.06.18-.02.36-.11.52-.27.17-.15.34-.39.52-.72l.28-.51-1.31-6.55h1.05l.94,5.23h.07l2.68-5.23h1.13l-4.01,7.49c-.19.35-.39.64-.62.86-.22.22-.47.38-.73.49-.26.11-.54.16-.84.16Z"/>
</svg>