<svg width="309" height="73" viewBox="0 0 309 73" fill="none" xmlns="http://www.w3.org/2000/svg">
<path d="M43.1311 41.1539C42.3222 40.8179 32.1063 29.1693 32.1063 28.5805C32.1063 28.4181 35.999 29.4826 40.7589 30.9434C50.7142 33.9971 51.3014 34.0915 48.5326 32.2155C46.0049 30.5018 45.9816 29.9507 48.3421 27.4707C55.6647 19.7741 66.565 19.1551 76.8858 25.8476L80.133 27.9539C62.7773 34.9597 63.1428 34.1066 68.5366 41.0444C70.2749 43.279 70.3215 43.4074 69.5127 43.5923C69.046 43.7018 63.1039 43.2715 56.3141 42.6411C49.5243 42.0107 43.5899 41.3426 43.1311 41.1539Z" fill="#BBDEFB"/>
<path d="M10.2318 38.2889C8.03077 39.6855 7.85188 39.1042 9.94016 37.3415C17.8578 30.6452 30.0491 31.5436 38.1339 39.4175C40.7589 41.9768 44.9977 48.3862 44.4299 48.941C44.3016 49.0656 42.3494 49.2317 40.0939 49.3072C35.9951 49.4506 35.9951 49.4506 34.4979 46.9027C29.4075 38.2436 17.15 33.8914 10.2318 38.2889Z" fill="#1E88E5"/>
<path d="M31.0135 51.538C30.7608 51.2926 27.6108 51.319 54.7235 51.3379L77.928 51.353C94.5837 38.9909 95.7503 38.6059 104.356 39.912C109.182 40.6443 109.653 41.0897 106.355 41.8031C101.965 42.7581 99.3047 44.5963 92.9659 51.0548C87.2183 56.9131 87.1094 57.0037 85.48 56.9999C84.57 56.9999 71.9898 55.8147 57.5234 54.369C43.0571 52.9195 31.1263 51.6437 31.0135 51.538Z" fill="#1E88E5"/>
<path d="M67.4865 35.4919C68.3887 34.6161 87.7277 26.8026 88.9915 26.8026C89.6798 26.8026 91.282 27.1423 92.5537 27.5575C98.1808 29.3958 97.3174 28.32 89.9521 24.3113C84.0566 21.1066 84.0139 21.0726 82.8939 18.8909C81.2956 15.7843 81.5367 15.4823 84.7489 16.577C91.3792 18.8418 98.9507 24.2169 102.738 29.3429C105.632 33.2535 105.597 33.3667 101.23 34.3029C96.3802 35.3447 91.2976 38.1794 83.275 44.3284C79.8684 46.9367 77.0257 49.0731 76.9557 49.0731C76.8857 49.0731 74.6185 46.1214 71.9197 42.5128C68.0815 37.3792 67.1171 35.8505 67.4865 35.4919Z" fill="#1E88E5"/>
<path d="M30.9397 27.935L14.2179 23.0279L11.1068 20.0082H24.7176L30.9397 27.935Z" fill="#1E88E5"/>
<path d="M44.6555 43.9659C44.7605 43.898 71.0021 45.7551 71.5777 45.8721C72.6393 46.0873 70.6794 46.3968 60.1057 47.6915C53.7942 48.4616 48.5015 49.0882 48.3421 49.0844C48.1827 49.0768 47.2649 47.9369 46.3083 46.5478C45.3477 45.1625 44.605 43.9999 44.6555 43.9659Z" fill="#1E88E5"/>
<path d="M131.819 21.0556C131.755 20.2533 131.454 19.6275 130.916 19.1782C130.387 18.7289 129.58 18.5043 128.497 18.5043C127.807 18.5043 127.242 18.5885 126.801 18.757C126.367 18.9174 126.046 19.1381 125.838 19.4189C125.629 19.6997 125.521 20.0206 125.513 20.3816C125.497 20.6785 125.549 20.9472 125.669 21.1879C125.798 21.4206 125.998 21.6332 126.271 21.8258C126.544 22.0103 126.893 22.1788 127.318 22.3312C127.743 22.4836 128.249 22.62 128.834 22.7404L130.856 23.1736C132.22 23.4624 133.387 23.8435 134.358 24.3169C135.329 24.7902 136.123 25.3478 136.741 25.9897C137.359 26.6235 137.812 27.3375 138.101 28.1318C138.398 28.9261 138.55 29.7925 138.558 30.7312C138.55 32.3519 138.145 33.7238 137.343 34.847C136.54 35.9702 135.393 36.8246 133.901 37.4103C132.417 37.996 130.631 38.2888 128.546 38.2888C126.403 38.2888 124.534 37.9719 122.937 37.3381C121.349 36.7043 120.113 35.7295 119.231 34.4137C118.356 33.09 117.915 31.3971 117.907 29.3352H124.261C124.301 30.0894 124.49 30.7232 124.827 31.2367C125.164 31.7501 125.637 32.1392 126.247 32.404C126.865 32.6688 127.599 32.8011 128.449 32.8011C129.163 32.8011 129.761 32.7129 130.242 32.5364C130.724 32.3599 131.089 32.1152 131.337 31.8023C131.586 31.4894 131.715 31.1324 131.723 30.7312C131.715 30.3541 131.59 30.0252 131.35 29.7444C131.117 29.4556 130.732 29.1988 130.194 28.9742C129.657 28.7415 128.931 28.5249 128.016 28.3243L125.561 27.7948C123.379 27.3215 121.658 26.5312 120.398 25.424C119.147 24.3089 118.525 22.7885 118.533 20.863C118.525 19.2985 118.942 17.9306 119.784 16.7593C120.635 15.5799 121.81 14.6613 123.311 14.0034C124.819 13.3455 126.548 13.0166 128.497 13.0166C130.487 13.0166 132.208 13.3495 133.66 14.0154C135.112 14.6813 136.231 15.62 137.018 16.8315C137.812 18.0349 138.213 19.4429 138.221 21.0556H131.819ZM146.35 38.2888C145.171 38.2888 144.128 38.0963 143.221 37.7112C142.323 37.3181 141.617 36.7244 141.103 35.9301C140.59 35.1358 140.333 34.1249 140.333 32.8974C140.333 31.8865 140.506 31.0241 140.851 30.31C141.196 29.5879 141.677 28.9983 142.295 28.541C142.913 28.0836 143.631 27.7347 144.449 27.494C145.275 27.2533 146.166 27.0968 147.121 27.0246C148.156 26.9444 148.986 26.8481 149.612 26.7358C150.246 26.6155 150.703 26.451 150.984 26.2424C151.264 26.0258 151.405 25.741 151.405 25.3879V25.3398C151.405 24.8584 151.22 24.4894 150.851 24.2326C150.482 23.9759 150.009 23.8475 149.431 23.8475C148.797 23.8475 148.28 23.9879 147.879 24.2687C147.486 24.5415 147.249 24.9627 147.169 25.5324H141.055C141.135 24.4091 141.493 23.3742 142.126 22.4275C142.768 21.4727 143.703 20.7106 144.93 20.1409C146.158 19.5633 147.69 19.2745 149.527 19.2745C150.851 19.2745 152.039 19.4309 153.09 19.7438C154.141 20.0487 155.035 20.4779 155.773 21.0315C156.511 21.577 157.073 22.2189 157.458 22.957C157.851 23.6871 158.048 24.4813 158.048 25.3398V38H151.838V35.4006H151.694C151.325 36.0905 150.875 36.6481 150.346 37.0734C149.824 37.4986 149.227 37.8074 148.553 38C147.887 38.1926 147.153 38.2888 146.35 38.2888ZM148.517 34.1009C149.022 34.1009 149.495 33.9966 149.937 33.788C150.386 33.5794 150.751 33.2785 151.032 32.8854C151.313 32.4923 151.453 32.0149 151.453 31.4533V29.9129C151.276 29.9851 151.088 30.0533 150.887 30.1175C150.695 30.1816 150.486 30.2418 150.262 30.298C150.045 30.3541 149.812 30.4063 149.564 30.4544C149.323 30.5026 149.07 30.5467 148.805 30.5868C148.292 30.667 147.871 30.7994 147.542 30.9839C147.221 31.1604 146.98 31.3811 146.82 31.6458C146.667 31.9026 146.591 32.1914 146.591 32.5123C146.591 33.0258 146.772 33.4189 147.133 33.6917C147.494 33.9645 147.955 34.1009 148.517 34.1009ZM172.294 19.5152V24.3289H159.922V19.5152H172.294ZM162.281 38V18.9856C162.281 17.4613 162.554 16.1977 163.099 15.1948C163.645 14.1919 164.415 13.4418 165.41 12.9444C166.405 12.4469 167.576 12.1982 168.924 12.1982C169.766 12.1982 170.585 12.2624 171.379 12.3908C172.181 12.5191 172.775 12.6315 173.16 12.7277L172.197 17.4934C171.957 17.4212 171.676 17.365 171.355 17.3249C171.034 17.2768 170.753 17.2527 170.512 17.2527C169.887 17.2527 169.465 17.3851 169.249 17.6498C169.032 17.9146 168.924 18.2636 168.924 18.6968V38H162.281ZM183.152 38.337C181.178 38.337 179.477 37.9599 178.049 37.2057C176.629 36.4436 175.534 35.3524 174.764 33.9324C174.001 32.5043 173.62 30.7954 173.62 28.8057C173.62 26.8963 174.005 25.2275 174.776 23.7994C175.546 22.3713 176.633 21.2601 178.037 20.4659C179.441 19.6716 181.098 19.2745 183.007 19.2745C184.403 19.2745 185.667 19.4911 186.798 19.9243C187.929 20.3576 188.896 20.9874 189.698 21.8137C190.501 22.6321 191.118 23.6269 191.552 24.7983C191.985 25.9696 192.201 27.2894 192.201 28.7576V30.298H175.69V26.6395H186.088C186.08 26.11 185.944 25.6447 185.679 25.2435C185.422 24.8344 185.073 24.5175 184.632 24.2928C184.199 24.0601 183.705 23.9438 183.152 23.9438C182.614 23.9438 182.121 24.0601 181.671 24.2928C181.222 24.5175 180.861 24.8303 180.588 25.2315C180.324 25.6326 180.183 26.102 180.167 26.6395V30.5868C180.167 31.1805 180.291 31.71 180.54 32.1753C180.789 32.6407 181.146 33.0057 181.611 33.2705C182.077 33.5352 182.638 33.6676 183.296 33.6676C183.753 33.6676 184.171 33.6034 184.548 33.4751C184.933 33.3467 185.262 33.1622 185.534 32.9215C185.807 32.6728 186.008 32.3759 186.136 32.0309H192.201C191.993 33.3146 191.499 34.4298 190.721 35.3765C189.943 36.3152 188.912 37.0453 187.628 37.5668C186.353 38.0802 184.861 38.337 183.152 38.337ZM201.567 38V13.3535H212.254C214.131 13.3535 215.708 13.6063 216.983 14.1117C218.267 14.6171 219.234 15.3312 219.884 16.2538C220.542 17.1765 220.87 18.2636 220.87 19.5152C220.87 20.4217 220.67 21.2481 220.269 21.9942C219.876 22.7404 219.322 23.3662 218.608 23.8716C217.894 24.369 217.06 24.714 216.105 24.9066V25.1473C217.164 25.1874 218.127 25.4561 218.993 25.9536C219.86 26.443 220.55 27.1209 221.063 27.9874C221.576 28.8458 221.833 29.8567 221.833 31.02C221.833 32.3679 221.48 33.5673 220.774 34.6183C220.076 35.6693 219.081 36.4957 217.79 37.0974C216.498 37.6991 214.958 38 213.168 38H201.567ZM208.258 32.6567H211.387C212.511 32.6567 213.353 32.4481 213.915 32.0309C214.476 31.6057 214.757 30.9799 214.757 30.1536C214.757 29.5759 214.625 29.0865 214.36 28.6854C214.095 28.2842 213.718 27.9794 213.229 27.7708C212.747 27.5622 212.166 27.4579 211.484 27.4579H208.258V32.6567ZM208.258 23.318H211.002C211.588 23.318 212.105 23.2258 212.555 23.0412C213.004 22.8567 213.353 22.5919 213.602 22.247C213.858 21.894 213.987 21.4647 213.987 20.9593C213.987 20.1971 213.714 19.6154 213.168 19.2143C212.623 18.8051 211.933 18.6005 211.099 18.6005H208.258V23.318ZM236.287 29.9129V19.5152H242.93V38H236.623V34.486H236.431C236.03 35.6653 235.328 36.588 234.325 37.2539C233.322 37.9117 232.131 38.2407 230.751 38.2407C229.459 38.2407 228.328 37.9438 227.357 37.3501C226.394 36.7564 225.644 35.9381 225.107 34.8951C224.577 33.8521 224.308 32.6567 224.3 31.3089V19.5152H230.943V29.9129C230.951 30.8275 231.184 31.5455 231.641 32.067C232.107 32.5885 232.756 32.8493 233.591 32.8493C234.144 32.8493 234.622 32.7329 235.023 32.5003C235.432 32.2596 235.745 31.9226 235.962 31.4894C236.186 31.0481 236.295 30.5226 236.287 29.9129ZM252.999 38.2407C251.684 38.2407 250.472 37.8957 249.365 37.2057C248.266 36.5158 247.383 35.4688 246.717 34.0647C246.059 32.6607 245.731 30.8917 245.731 28.7576C245.731 26.5272 246.076 24.714 246.765 23.318C247.463 21.922 248.362 20.8991 249.461 20.2492C250.568 19.5994 251.732 19.2745 252.951 19.2745C253.866 19.2745 254.668 19.4349 255.358 19.7558C256.048 20.0687 256.626 20.4899 257.091 21.0195C257.556 21.5409 257.909 22.1146 258.15 22.7404H258.246V13.3535H264.889V38H258.294V34.9673H258.15C257.893 35.5931 257.524 36.1547 257.043 36.6521C256.57 37.1415 255.992 37.5307 255.31 37.8195C254.636 38.1003 253.866 38.2407 252.999 38.2407ZM255.454 33.1381C256.064 33.1381 256.586 32.9616 257.019 32.6086C257.46 32.2476 257.797 31.7421 258.03 31.0923C258.27 30.4344 258.391 29.6561 258.391 28.7576C258.391 27.843 258.27 27.0607 258.03 26.4109C257.797 25.753 257.46 25.2516 257.019 24.9066C256.586 24.5536 256.064 24.3771 255.454 24.3771C254.845 24.3771 254.323 24.5536 253.89 24.9066C253.465 25.2516 253.136 25.753 252.903 26.4109C252.678 27.0607 252.566 27.843 252.566 28.7576C252.566 29.6722 252.678 30.4584 252.903 31.1163C253.136 31.7662 253.465 32.2676 253.89 32.6206C254.323 32.9656 254.845 33.1381 255.454 33.1381ZM274.842 38.2407C273.526 38.2407 272.315 37.8957 271.207 37.2057C270.108 36.5158 269.226 35.4688 268.56 34.0647C267.902 32.6607 267.573 30.8917 267.573 28.7576C267.573 26.5272 267.918 24.714 268.608 23.318C269.306 21.922 270.205 20.8991 271.304 20.2492C272.411 19.5994 273.574 19.2745 274.794 19.2745C275.708 19.2745 276.511 19.4349 277.201 19.7558C277.89 20.0687 278.468 20.4899 278.933 21.0195C279.399 21.5409 279.752 22.1146 279.992 22.7404H280.089V13.3535H286.732V38H280.137V34.9673H279.992C279.736 35.5931 279.367 36.1547 278.885 36.6521C278.412 37.1415 277.834 37.5307 277.152 37.8195C276.478 38.1003 275.708 38.2407 274.842 38.2407ZM277.297 33.1381C277.907 33.1381 278.428 32.9616 278.861 32.6086C279.303 32.2476 279.639 31.7421 279.872 31.0923C280.113 30.4344 280.233 29.6561 280.233 28.7576C280.233 27.843 280.113 27.0607 279.872 26.4109C279.639 25.753 279.303 25.2516 278.861 24.9066C278.428 24.5536 277.907 24.3771 277.297 24.3771C276.687 24.3771 276.166 24.5536 275.732 24.9066C275.307 25.2516 274.978 25.753 274.745 26.4109C274.521 27.0607 274.409 27.843 274.409 28.7576C274.409 29.6722 274.521 30.4584 274.745 31.1163C274.978 31.7662 275.307 32.2676 275.732 32.6206C276.166 32.9656 276.687 33.1381 277.297 33.1381ZM294.037 44.9318C293.274 44.9318 292.548 44.8716 291.858 44.7513C291.168 44.639 290.563 44.4825 290.041 44.282L291.485 39.5645C292.031 39.757 292.528 39.8814 292.978 39.9375C293.435 39.9937 293.824 39.9616 294.145 39.8413C294.474 39.7209 294.711 39.4923 294.855 39.1553L294.999 38.8183L288.501 19.5152H295.433L298.417 32.3198H298.61L301.642 19.5152H308.622L301.883 39.5404C301.546 40.5593 301.057 41.4739 300.415 42.2842C299.781 43.1026 298.947 43.7484 297.912 44.2218C296.877 44.6951 295.585 44.9318 294.037 44.9318Z" fill="white"/>
<path d="M118.155 59.2727H119.365L121.12 63.3466H121.223L124.308 59.2727H125.518L121.513 64.4034L120.916 68H119.859L120.456 64.4034L118.155 59.2727ZM127.076 68.1364C126.473 68.1364 125.969 67.9929 125.563 67.706C125.157 67.419 124.87 67.017 124.702 66.5C124.537 65.983 124.51 65.3807 124.621 64.6932C124.729 64.0227 124.944 63.4389 125.265 62.9418C125.589 62.4418 125.991 62.0554 126.471 61.7827C126.954 61.5071 127.485 61.3693 128.064 61.3693C128.667 61.3693 129.169 61.5142 129.573 61.804C129.979 62.0909 130.266 62.4943 130.434 63.0142C130.601 63.5312 130.63 64.1364 130.519 64.8295C130.411 65.4943 130.194 66.0753 129.867 66.5724C129.543 67.0668 129.141 67.4517 128.661 67.7273C128.184 68 127.655 68.1364 127.076 68.1364ZM127.093 67.233C127.553 67.233 127.952 67.1151 128.29 66.8793C128.631 66.6435 128.907 66.3324 129.117 65.946C129.33 65.5597 129.473 65.142 129.547 64.6932C129.616 64.267 129.613 63.8707 129.539 63.5043C129.465 63.1349 129.307 62.8381 129.066 62.6136C128.824 62.3864 128.485 62.2727 128.047 62.2727C127.587 62.2727 127.185 62.392 126.841 62.6307C126.5 62.8693 126.225 63.1832 126.015 63.5724C125.804 63.9616 125.664 64.3807 125.593 64.8295C125.525 65.2557 125.526 65.652 125.597 66.0185C125.671 66.3821 125.829 66.6761 126.07 66.9006C126.314 67.1222 126.655 67.233 127.093 67.233ZM136.102 65.3239L136.75 61.4545H137.756L136.665 68H135.659L135.847 66.892H135.778C135.574 67.2244 135.288 67.5071 134.922 67.7401C134.555 67.9702 134.125 68.0852 133.631 68.0852C133.222 68.0852 132.872 67.9957 132.582 67.8168C132.296 67.6349 132.091 67.3622 131.969 66.9986C131.85 66.6321 131.835 66.1705 131.926 65.6136L132.625 61.4545H133.631L132.949 65.5455C132.872 66.0227 132.945 66.4034 133.166 66.6875C133.388 66.9716 133.707 67.1136 134.125 67.1136C134.375 67.1136 134.639 67.0497 134.918 66.9219C135.199 66.794 135.449 66.598 135.668 66.3338C135.889 66.0696 136.034 65.733 136.102 65.3239ZM138.507 68L139.598 61.4545H140.569L140.399 62.4432H140.467C140.638 62.1193 140.897 61.8565 141.247 61.6548C141.596 61.4531 141.967 61.3523 142.359 61.3523C142.436 61.3523 142.528 61.3537 142.636 61.3565C142.744 61.3565 142.828 61.3608 142.888 61.3693L142.717 62.392C142.683 62.3835 142.606 62.3707 142.487 62.3537C142.368 62.3338 142.24 62.3239 142.103 62.3239C141.785 62.3239 141.491 62.3906 141.221 62.5241C140.951 62.6548 140.726 62.8366 140.544 63.0696C140.362 63.2997 140.245 63.5625 140.194 63.858L139.513 68H138.507ZM151.859 62.9205L150.904 63.1761C150.87 63.0227 150.81 62.875 150.725 62.733C150.643 62.5881 150.515 62.4702 150.342 62.3793C150.171 62.2855 149.938 62.2386 149.643 62.2386C149.242 62.2386 148.894 62.331 148.599 62.5156C148.303 62.6974 148.134 62.929 148.092 63.2102C148.049 63.4574 148.106 63.6548 148.262 63.8026C148.418 63.9503 148.68 64.071 149.046 64.1648L149.984 64.4034C150.546 64.5483 150.947 64.7656 151.185 65.0554C151.427 65.3423 151.509 65.7159 151.433 66.1761C151.37 66.5511 151.207 66.8864 150.943 67.1818C150.678 67.4773 150.34 67.7102 149.928 67.8807C149.516 68.0511 149.058 68.1364 148.552 68.1364C147.879 68.1364 147.347 67.9915 146.958 67.7017C146.569 67.4091 146.362 66.9858 146.336 66.4318L147.342 66.1932C147.367 66.5426 147.492 66.8068 147.717 66.9858C147.944 67.1619 148.262 67.25 148.671 67.25C149.14 67.25 149.531 67.1506 149.843 66.9517C150.156 66.75 150.333 66.5085 150.376 66.2273C150.418 65.9972 150.373 65.8054 150.239 65.652C150.109 65.4986 149.881 65.3835 149.558 65.3068L148.518 65.0511C147.938 64.9062 147.532 64.6847 147.299 64.3864C147.069 64.0881 146.992 63.7131 147.069 63.2614C147.131 62.892 147.291 62.5653 147.546 62.2812C147.805 61.9972 148.129 61.7741 148.518 61.6122C148.91 61.4503 149.336 61.3693 149.796 61.3693C150.444 61.3693 150.928 61.5114 151.249 61.7955C151.57 62.0767 151.774 62.4517 151.859 62.9205ZM154.549 68.1534C154.134 68.1534 153.77 68.0753 153.458 67.919C153.145 67.7599 152.914 67.5312 152.763 67.233C152.613 66.9318 152.571 66.5682 152.64 66.142C152.705 65.767 152.831 65.4631 153.019 65.2301C153.206 64.9943 153.434 64.8097 153.701 64.6761C153.971 64.5398 154.26 64.4389 154.57 64.3736C154.883 64.3054 155.194 64.2528 155.503 64.2159C155.907 64.1648 156.235 64.125 156.488 64.0966C156.741 64.0682 156.931 64.0213 157.059 63.956C157.187 63.8906 157.265 63.7784 157.293 63.6193V63.5852C157.361 63.1676 157.306 62.8423 157.127 62.6094C156.948 62.3736 156.628 62.2557 156.168 62.2557C155.691 62.2557 155.292 62.3608 154.971 62.571C154.65 62.7812 154.412 63.0057 154.259 63.2443L153.373 62.9034C153.606 62.5057 153.884 62.196 154.208 61.9744C154.532 61.75 154.871 61.5937 155.226 61.5057C155.581 61.4148 155.924 61.3693 156.253 61.3693C156.464 61.3693 156.701 61.3949 156.965 61.446C157.229 61.4943 157.476 61.5952 157.706 61.7486C157.939 61.902 158.114 62.1335 158.231 62.4432C158.35 62.7528 158.367 63.1676 158.282 63.6875L157.566 68H156.56L156.714 67.1136H156.662C156.571 67.2557 156.432 67.4077 156.245 67.5696C156.06 67.7315 155.826 67.8693 155.542 67.983C155.26 68.0966 154.929 68.1534 154.549 68.1534ZM154.839 67.25C155.236 67.25 155.584 67.1719 155.883 67.0156C156.184 66.8594 156.425 66.6577 156.607 66.4105C156.792 66.1634 156.907 65.9034 156.952 65.6307L157.106 64.7102C157.054 64.7614 156.954 64.8082 156.803 64.8509C156.652 64.8906 156.482 64.9261 156.292 64.9574C156.104 64.9858 155.921 65.0114 155.742 65.0341C155.566 65.054 155.424 65.071 155.316 65.0852C155.049 65.1193 154.794 65.1747 154.553 65.2514C154.314 65.3253 154.113 65.4375 153.948 65.5881C153.786 65.7358 153.685 65.9375 153.645 66.1932C153.586 66.5426 153.669 66.8068 153.897 66.9858C154.124 67.1619 154.438 67.25 154.839 67.25ZM163.407 61.4545L163.271 62.3068H159.742L159.879 61.4545H163.407ZM159.845 68L161.089 60.5511C161.146 60.1761 161.282 59.8636 161.498 59.6136C161.717 59.3636 161.977 59.1761 162.278 59.0511C162.582 58.9261 162.89 58.8636 163.203 58.8636C163.45 58.8636 163.647 58.8835 163.795 58.9233C163.945 58.9631 164.055 59 164.123 59.0341L163.697 59.9034C163.646 59.8864 163.578 59.8651 163.492 59.8395C163.41 59.8139 163.296 59.8011 163.151 59.8011C162.819 59.8011 162.566 59.8849 162.393 60.0526C162.22 60.2202 162.103 60.4659 162.043 60.7898L160.85 68H159.845ZM166.183 68.1364C165.555 68.1364 165.037 67.9972 164.628 67.7188C164.219 67.4375 163.933 67.0455 163.771 66.5426C163.609 66.0369 163.584 65.4489 163.695 64.7784C163.805 64.108 164.026 63.517 164.355 63.0057C164.685 62.4915 165.095 62.0909 165.587 61.804C166.078 61.5142 166.618 61.3693 167.206 61.3693C167.547 61.3693 167.875 61.4261 168.19 61.5398C168.506 61.6534 168.778 61.8381 169.009 62.0938C169.239 62.3466 169.399 62.6818 169.49 63.0994C169.581 63.517 169.575 64.0312 169.473 64.642L169.405 65.0682H164.359L164.496 64.1989H168.519C168.584 63.8295 168.567 63.5 168.467 63.2102C168.371 62.9205 168.202 62.6918 167.96 62.5241C167.722 62.3565 167.419 62.2727 167.053 62.2727C166.675 62.2727 166.323 62.375 165.996 62.5795C165.669 62.7812 165.396 63.0369 165.178 63.3466C164.959 63.6534 164.823 63.9659 164.769 64.2841L164.649 65.0341C164.564 65.5767 164.577 66.0085 164.688 66.3295C164.801 66.6506 164.999 66.8821 165.28 67.0241C165.561 67.1634 165.913 67.233 166.337 67.233C166.607 67.233 166.855 67.196 167.082 67.1222C167.31 67.0455 167.513 66.9318 167.692 66.7812C167.871 66.6278 168.021 66.4375 168.144 66.2102L169.064 66.483C168.908 66.8125 168.688 67.1023 168.403 67.3523C168.122 67.5994 167.793 67.7926 167.415 67.9318C167.04 68.0682 166.629 68.1364 166.183 68.1364ZM174.401 61.4545L174.265 62.3068H170.873L171.009 61.4545H174.401ZM172.254 59.8864H173.259L172.22 66.125C172.174 66.4091 172.181 66.6222 172.241 66.7642C172.303 66.9034 172.397 66.9972 172.522 67.0455C172.65 67.0909 172.788 67.1136 172.935 67.1136C173.046 67.1136 173.137 67.108 173.208 67.0966C173.279 67.0824 173.336 67.071 173.379 67.0625L173.447 67.9659C173.37 67.9915 173.266 68.017 173.136 68.0426C173.008 68.071 172.85 68.0852 172.663 68.0852C172.379 68.0852 172.112 68.0241 171.862 67.902C171.612 67.7798 171.42 67.5938 171.286 67.3438C171.153 67.0938 171.117 66.7784 171.18 66.3977L172.254 59.8864ZM175.07 70.4545C174.9 70.4545 174.749 70.4403 174.619 70.4119C174.491 70.3864 174.403 70.3608 174.354 70.3352L174.764 69.4489C174.997 69.5114 175.204 69.5298 175.386 69.5043C175.57 69.4815 175.745 69.392 175.91 69.2358C176.078 69.0824 176.252 68.8409 176.434 68.5114L176.715 68L175.403 61.4545H176.451L177.389 66.6875H177.457L180.133 61.4545H181.266L177.252 68.946C177.065 69.2955 176.859 69.581 176.634 69.8026C176.41 70.0241 176.167 70.1875 175.906 70.2926C175.644 70.4006 175.366 70.4545 175.07 70.4545ZM184.878 68L185.969 61.4545H186.975L185.884 68H184.878ZM186.778 60.3466C186.582 60.3466 186.413 60.2798 186.271 60.1463C186.132 60.0128 186.063 59.8523 186.063 59.6648C186.063 59.4773 186.132 59.3168 186.271 59.1832C186.413 59.0497 186.582 58.983 186.778 58.983C186.975 58.983 187.142 59.0497 187.281 59.1832C187.423 59.3168 187.494 59.4773 187.494 59.6648C187.494 59.8523 187.423 60.0128 187.281 60.1463C187.142 60.2798 186.975 60.3466 186.778 60.3466ZM193.214 62.9205L192.26 63.1761C192.226 63.0227 192.166 62.875 192.081 62.733C191.998 62.5881 191.87 62.4702 191.697 62.3793C191.527 62.2855 191.294 62.2386 190.998 62.2386C190.598 62.2386 190.25 62.331 189.954 62.5156C189.659 62.6974 189.49 62.929 189.447 63.2102C189.405 63.4574 189.461 63.6548 189.618 63.8026C189.774 63.9503 190.035 64.071 190.402 64.1648L191.339 64.4034C191.902 64.5483 192.302 64.7656 192.541 65.0554C192.782 65.3423 192.865 65.7159 192.788 66.1761C192.726 66.5511 192.562 66.8864 192.298 67.1818C192.034 67.4773 191.696 67.7102 191.284 67.8807C190.872 68.0511 190.413 68.1364 189.907 68.1364C189.234 68.1364 188.703 67.9915 188.314 67.7017C187.924 67.4091 187.717 66.9858 187.691 66.4318L188.697 66.1932C188.723 66.5426 188.848 66.8068 189.072 66.9858C189.299 67.1619 189.618 67.25 190.027 67.25C190.495 67.25 190.886 67.1506 191.199 66.9517C191.511 66.75 191.689 66.5085 191.731 66.2273C191.774 65.9972 191.728 65.8054 191.595 65.652C191.464 65.4986 191.237 65.3835 190.913 65.3068L189.873 65.0511C189.294 64.9062 188.888 64.6847 188.655 64.3864C188.424 64.0881 188.348 63.7131 188.424 63.2614C188.487 62.892 188.646 62.5653 188.902 62.2812C189.16 61.9972 189.484 61.7741 189.873 61.6122C190.265 61.4503 190.691 61.3693 191.152 61.3693C191.799 61.3693 192.284 61.5114 192.605 61.7955C192.926 62.0767 193.129 62.4517 193.214 62.9205ZM200.072 68.1364C199.47 68.1364 198.965 67.9929 198.559 67.706C198.153 67.419 197.866 67.017 197.698 66.5C197.533 65.983 197.506 65.3807 197.617 64.6932C197.725 64.0227 197.94 63.4389 198.261 62.9418C198.585 62.4418 198.987 62.0554 199.467 61.7827C199.95 61.5071 200.481 61.3693 201.06 61.3693C201.663 61.3693 202.166 61.5142 202.569 61.804C202.975 62.0909 203.262 62.4943 203.43 63.0142C203.597 63.5312 203.626 64.1364 203.515 64.8295C203.407 65.4943 203.19 66.0753 202.863 66.5724C202.539 67.0668 202.137 67.4517 201.657 67.7273C201.18 68 200.651 68.1364 200.072 68.1364ZM200.089 67.233C200.549 67.233 200.948 67.1151 201.286 66.8793C201.627 66.6435 201.903 66.3324 202.113 65.946C202.326 65.5597 202.47 65.142 202.543 64.6932C202.612 64.267 202.609 63.8707 202.535 63.5043C202.461 63.1349 202.303 62.8381 202.062 62.6136C201.82 62.3864 201.481 62.2727 201.043 62.2727C200.583 62.2727 200.181 62.392 199.837 62.6307C199.497 62.8693 199.221 63.1832 199.011 63.5724C198.801 63.9616 198.66 64.3807 198.589 64.8295C198.521 65.2557 198.522 65.652 198.593 66.0185C198.667 66.3821 198.825 66.6761 199.066 66.9006C199.31 67.1222 199.651 67.233 200.089 67.233ZM209.098 65.3239L209.746 61.4545H210.752L209.661 68H208.655L208.843 66.892H208.775C208.57 67.2244 208.285 67.5071 207.918 67.7401C207.552 67.9702 207.121 68.0852 206.627 68.0852C206.218 68.0852 205.868 67.9957 205.579 67.8168C205.292 67.6349 205.087 67.3622 204.965 66.9986C204.846 66.6321 204.831 66.1705 204.922 65.6136L205.621 61.4545H206.627L205.945 65.5455C205.868 66.0227 205.941 66.4034 206.162 66.6875C206.384 66.9716 206.704 67.1136 207.121 67.1136C207.371 67.1136 207.635 67.0497 207.914 66.9219C208.195 66.794 208.445 66.598 208.664 66.3338C208.885 66.0696 209.03 65.733 209.098 65.3239ZM211.503 68L212.594 61.4545H213.565L213.395 62.4432H213.463C213.634 62.1193 213.894 61.8565 214.243 61.6548C214.592 61.4531 214.963 61.3523 215.355 61.3523C215.432 61.3523 215.524 61.3537 215.632 61.3565C215.74 61.3565 215.824 61.3608 215.884 61.3693L215.713 62.392C215.679 62.3835 215.602 62.3707 215.483 62.3537C215.364 62.3338 215.236 62.3239 215.1 62.3239C214.781 62.3239 214.487 62.3906 214.217 62.5241C213.948 62.6548 213.722 62.8366 213.54 63.0696C213.358 63.2997 213.242 63.5625 213.19 63.858L212.509 68H211.503ZM218.957 70.4545L220.466 61.4545H221.437L221.267 62.4943H221.386C221.477 62.3807 221.602 62.2358 221.761 62.0597C221.923 61.8807 222.14 61.7216 222.413 61.5824C222.689 61.4403 223.04 61.3693 223.466 61.3693C224.017 61.3693 224.478 61.5071 224.851 61.7827C225.223 62.0582 225.486 62.4489 225.639 62.9545C225.792 63.4602 225.812 64.0568 225.699 64.7443C225.585 65.4375 225.368 66.0384 225.047 66.5469C224.726 67.0526 224.334 67.4446 223.87 67.723C223.407 67.9986 222.903 68.1364 222.358 68.1364C221.937 68.1364 221.612 68.0668 221.382 67.9276C221.152 67.7855 220.984 67.625 220.879 67.446C220.774 67.2642 220.693 67.1136 220.636 66.9943H220.551L219.971 70.4545H218.957ZM220.909 64.7273C220.829 65.2216 220.829 65.6577 220.909 66.0355C220.991 66.4105 221.155 66.7045 221.399 66.9176C221.646 67.1278 221.971 67.233 222.375 67.233C222.795 67.233 223.163 67.1222 223.478 66.9006C223.797 66.6761 224.058 66.375 224.263 65.9972C224.47 65.6165 224.613 65.1932 224.693 64.7273C224.767 64.267 224.764 63.8523 224.684 63.483C224.605 63.1108 224.443 62.8168 224.199 62.6009C223.954 62.3821 223.619 62.2727 223.193 62.2727C222.784 62.2727 222.422 62.3764 222.106 62.5838C221.794 62.7884 221.535 63.0753 221.331 63.4446C221.129 63.8111 220.988 64.2386 220.909 64.7273ZM226.69 68L227.781 61.4545H228.753L228.582 62.4432H228.651C228.821 62.1193 229.081 61.8565 229.43 61.6548C229.78 61.4531 230.151 61.3523 230.543 61.3523C230.619 61.3523 230.712 61.3537 230.82 61.3565C230.928 61.3565 231.011 61.3608 231.071 61.3693L230.901 62.392C230.867 62.3835 230.79 62.3707 230.671 62.3537C230.551 62.3338 230.423 62.3239 230.287 62.3239C229.969 62.3239 229.675 62.3906 229.405 62.5241C229.135 62.6548 228.909 62.8366 228.727 63.0696C228.546 63.2997 228.429 63.5625 228.378 63.858L227.696 68H226.69ZM231.179 68L232.27 61.4545H233.275L232.184 68H231.179ZM233.079 60.3466C232.883 60.3466 232.714 60.2798 232.572 60.1463C232.433 60.0128 232.363 59.8523 232.363 59.6648C232.363 59.4773 232.433 59.3168 232.572 59.1832C232.714 59.0497 232.883 58.983 233.079 58.983C233.275 58.983 233.443 59.0497 233.582 59.1832C233.724 59.3168 233.795 59.4773 233.795 59.6648C233.795 59.8523 233.724 60.0128 233.582 60.1463C233.443 60.2798 233.275 60.3466 233.079 60.3466ZM236.728 68.1364C236.126 68.1364 235.622 67.9929 235.215 67.706C234.809 67.419 234.522 67.017 234.354 66.5C234.19 65.983 234.163 65.3807 234.274 64.6932C234.381 64.0227 234.596 63.4389 234.917 62.9418C235.241 62.4418 235.643 62.0554 236.123 61.7827C236.606 61.5071 237.137 61.3693 237.717 61.3693C238.319 61.3693 238.822 61.5142 239.225 61.804C239.631 62.0909 239.918 62.4943 240.086 63.0142C240.254 63.5312 240.282 64.1364 240.171 64.8295C240.063 65.4943 239.846 66.0753 239.519 66.5724C239.195 67.0668 238.793 67.4517 238.313 67.7273C237.836 68 237.308 68.1364 236.728 68.1364ZM236.745 67.233C237.205 67.233 237.604 67.1151 237.943 66.8793C238.283 66.6435 238.559 66.3324 238.769 65.946C238.982 65.5597 239.126 65.142 239.2 64.6932C239.268 64.267 239.265 63.8707 239.191 63.5043C239.117 63.1349 238.96 62.8381 238.718 62.6136C238.477 62.3864 238.137 62.2727 237.7 62.2727C237.239 62.2727 236.837 62.392 236.494 62.6307C236.153 62.8693 235.877 63.1832 235.667 63.5724C235.457 63.9616 235.316 64.3807 235.245 64.8295C235.177 65.2557 235.178 65.652 235.249 66.0185C235.323 66.3821 235.481 66.6761 235.722 66.9006C235.967 67.1222 236.308 67.233 236.745 67.233ZM241.187 68L242.277 61.4545H243.249L243.079 62.4432H243.147C243.317 62.1193 243.577 61.8565 243.927 61.6548C244.276 61.4531 244.647 61.3523 245.039 61.3523C245.116 61.3523 245.208 61.3537 245.316 61.3565C245.424 61.3565 245.508 61.3608 245.567 61.3693L245.397 62.392C245.363 62.3835 245.286 62.3707 245.167 62.3537C245.047 62.3338 244.919 62.3239 244.783 62.3239C244.465 62.3239 244.171 62.3906 243.901 62.5241C243.631 62.6548 243.405 62.8366 243.223 63.0696C243.042 63.2997 242.925 63.5625 242.874 63.858L242.192 68H241.187ZM245.675 68L246.766 61.4545H247.771L246.68 68H245.675ZM247.575 60.3466C247.379 60.3466 247.21 60.2798 247.068 60.1463C246.929 60.0128 246.859 59.8523 246.859 59.6648C246.859 59.4773 246.929 59.3168 247.068 59.1832C247.21 59.0497 247.379 58.983 247.575 58.983C247.771 58.983 247.939 59.0497 248.078 59.1832C248.22 59.3168 248.291 59.4773 248.291 59.6648C248.291 59.8523 248.22 60.0128 248.078 60.1463C247.939 60.2798 247.771 60.3466 247.575 60.3466ZM252.46 61.4545L252.324 62.3068H248.932L249.068 61.4545H252.46ZM250.312 59.8864H251.318L250.278 66.125C250.233 66.4091 250.24 66.6222 250.299 66.7642C250.362 66.9034 250.456 66.9972 250.581 67.0455C250.709 67.0909 250.846 67.1136 250.994 67.1136C251.105 67.1136 251.196 67.108 251.267 67.0966C251.338 67.0824 251.395 67.071 251.437 67.0625L251.505 67.9659C251.429 67.9915 251.325 68.017 251.194 68.0426C251.066 68.071 250.909 68.0852 250.721 68.0852C250.437 68.0852 250.17 68.0241 249.92 67.902C249.67 67.7798 249.478 67.5938 249.345 67.3438C249.211 67.0938 249.176 66.7784 249.238 66.3977L250.312 59.8864ZM253.129 70.4545C252.959 70.4545 252.808 70.4403 252.677 70.4119C252.549 70.3864 252.461 70.3608 252.413 70.3352L252.822 69.4489C253.055 69.5114 253.263 69.5298 253.444 69.5043C253.629 69.4815 253.804 69.392 253.968 69.2358C254.136 69.0824 254.311 68.8409 254.493 68.5114L254.774 68L253.461 61.4545H254.51L255.447 66.6875H255.515L258.191 61.4545H259.325L255.311 68.946C255.123 69.2955 254.917 69.581 254.693 69.8026C254.468 70.0241 254.226 70.1875 253.964 70.2926C253.703 70.4006 253.424 70.4545 253.129 70.4545Z" fill="#616161"/>
</svg>
